<?xml version="1.0" encoding="UTF-8" standalone="no"?>
<svg
   xmlns:dc="http://purl.org/dc/elements/1.1/"
   xmlns:cc="http://creativecommons.org/ns#"
   xmlns:rdf="http://www.w3.org/1999/02/22-rdf-syntax-ns#"
   xmlns:svg="http://www.w3.org/2000/svg"
   xmlns="http://www.w3.org/2000/svg"
   xmlns:xlink="http://www.w3.org/1999/xlink"
   xmlns:sodipodi="http://sodipodi.sourceforge.net/DTD/sodipodi-0.dtd"
   xmlns:inkscape="http://www.inkscape.org/namespaces/inkscape"
   id="svg8"
   version="1.1"
   viewBox="0 0 190.33238 190.4281"
   height="190.4281mm"
   width="190.33238mm"
   inkscape:version="1.0 (4035a4f, 2020-05-01)"
   sodipodi:docname="triangle.svg">
  <defs
     id="defs2">
    <linearGradient
       inkscape:collect="always"
       id="linearGradient877">
      <stop
         style="stop-color:#ff0000;stop-opacity:1"
         offset="0"
         id="stop873" />
      <stop
         id="stop881"
         offset="0.52597409"
         style="stop-color:#8d0064;stop-opacity:0.85425103" />
      <stop
         style="stop-color:#bcd826;stop-opacity:0.92941177"
         offset="1"
         id="stop875" />
    </linearGradient>
    <radialGradient
       inkscape:collect="always"
       xlink:href="#linearGradient877"
       id="radialGradient879"
       cx="104.3693"
       cy="182.84125"
       fx="104.3693"
       fy="182.84125"
       r="95.166191"
       gradientTransform="matrix(0.99851148,0.05454205,-0.06862414,1.2563151,12.702681,-52.540012)"
       gradientUnits="userSpaceOnUse" />
  </defs>
  <sodipodi:namedview
     fit-margin-bottom="0"
     fit-margin-right="0"
     fit-margin-left="0"
     fit-margin-top="0"
     id="base"
     pagecolor="#ffffff"
     bordercolor="#666666"
     borderopacity="1.0"
     inkscape:pageopacity="0.0"
     inkscape:pageshadow="2"
     inkscape:zoom="0.71317139"
     inkscape:cx="383.88156"
     inkscape:cy="357.05976"
     inkscape:document-units="mm"
     inkscape:current-layer="layer1"
     inkscape:document-rotation="0"
     showgrid="false"
     inkscape:window-width="1252"
     inkscape:window-height="747"
     inkscape:window-x="0"
     inkscape:window-y="25"
     inkscape:window-maximized="0" />
  <metadata
     id="metadata5">
    <rdf:RDF>
      <cc:Work
         rdf:about="">
        <dc:format>image/svg+xml</dc:format>
        <dc:type
           rdf:resource="http://purl.org/dc/dcmitype/StillImage" />
        <dc:title></dc:title>
      </cc:Work>
    </rdf:RDF>
  </metadata>
  <g
     transform="translate(-10.715008,-52.870854)"
     inkscape:label="Layer 1"
     inkscape:groupmode="layer"
     id="layer1">
    <path
       id="path45"
       style="fill:none;fill-opacity:1;stroke:url(#radialGradient879);stroke-width:0.264583;stroke-linecap:butt;stroke-linejoin:miter;stroke-opacity:1"
       d="M 10.833333,243.16667 H 200.83333 l -95,-190.000003 -94.999997,190.000003 m 189.999997,0 -95,-190.000003 M 10.833333,243.16667 H 200.83333 m 0,0 H 10.833333 M 199.56667,240.63333 104.56667,55.7 M 13.366667,243.16667 199.56667,240.63333 M 198.3,243.16667 12.1,240.63333 M 198.3,238.1 103.3,58.233333 M 15.9,243.16667 198.3,238.1 m -2.53333,5.06667 L 13.366667,238.1 m 183.666663,-2.53333 -95,-174.800003 m -83.599997,182.400003 178.599997,-7.6 m -3.8,7.6 -178.599997,-7.6 M 195.76667,233.03333 100.76667,63.3 M 20.966667,243.16667 195.76667,233.03333 M 190.7,243.16667 15.9,233.03333 M 194.5,230.5 99.5,65.833333 M 23.5,243.16667 194.5,230.5 M 188.16667,243.16667 17.166667,230.5 M 193.23333,227.96667 98.233333,68.366667 m -72.2,174.800003 167.199997,-15.2 m -7.6,15.2 -167.199997,-15.2 M 191.96667,225.43333 96.966667,70.9 m -68.4,172.26667 163.400003,-17.73334 M 183.1,243.16667 19.7,225.43333 M 190.7,222.9 95.7,73.433333 M 31.1,243.16667 190.7,222.9 M 180.56667,243.16667 20.966667,222.9 M 189.43333,220.36667 94.433333,75.966667 m -60.8,167.200003 155.799997,-22.8 m -11.4,22.8 -155.799997,-22.8 M 188.16667,217.83333 93.166667,78.5 m -57,164.66667 152.000003,-25.33334 M 175.5,243.16667 23.5,217.83333 M 186.9,215.3 91.9,81.033333 M 38.7,243.16667 186.9,215.3 M 172.96667,243.16667 24.766667,215.3 M 185.63333,212.76667 90.633333,83.566667 m -49.4,159.600003 144.399997,-30.4 m -15.2,30.4 -144.399997,-30.4 M 184.36667,210.23333 89.366667,86.1 m -45.6,157.06667 140.600003,-32.93334 M 167.9,243.16667 27.3,210.23333 M 183.1,207.7 88.1,88.633333 M 46.3,243.16667 183.1,207.7 M 165.36667,243.16667 28.566667,207.7 M 181.83333,205.16667 86.833333,91.166667 m -38,152.000003 132.999997,-38 m -19,38 -132.999997,-38 M 180.56667,202.63333 85.566667,93.7 m -34.2,149.46667 129.200003,-40.53334 M 160.3,243.16667 31.1,202.63333 M 179.3,200.1 84.3,96.233333 M 53.9,243.16667 179.3,200.1 M 157.76667,243.16667 32.366667,200.1 M 178.03333,197.56667 83.033333,98.766667 m -26.6,144.400003 121.599997,-45.6 m -22.8,45.6 -121.599997,-45.6 M 176.76667,195.03333 81.766667,101.3 m -22.8,141.86667 117.800003,-48.13334 M 152.7,243.16667 34.9,195.03333 M 175.5,192.5 80.5,103.83333 M 61.5,243.16667 175.5,192.5 M 150.16667,243.16667 36.166667,192.5 m 138.066663,-2.53333 -94.999997,-83.6 m -15.2,136.8 110.199997,-53.2 m -26.6,53.2 -110.199997,-53.2 M 172.96667,187.43333 77.966667,108.9 m -11.4,134.26667 106.400003,-55.73334 M 145.1,243.16667 38.7,187.43333 M 171.7,184.9 76.7,111.43333 M 69.1,243.16667 171.7,184.9 M 142.56667,243.16667 39.966667,184.9 m 130.466663,-2.53333 -94.999997,-68.4 m -3.8,129.2 98.799997,-60.8 m -30.4,60.8 -98.799997,-60.8 M 169.16667,179.83333 74.166667,116.5 m 0,126.66667 95.000003,-63.33334 M 137.5,243.16667 42.5,179.83333 M 167.9,177.3 72.9,119.03333 M 76.7,243.16667 167.9,177.3 M 134.96667,243.16667 43.766667,177.3 m 122.866663,-2.53333 -94.999997,-53.2 m 7.6,121.6 87.399997,-68.4 m -34.2,68.4 -87.399997,-68.4 M 165.36667,172.23333 70.366667,124.1 m 11.4,119.06667 83.600003,-70.93334 M 129.9,243.16667 46.3,172.23333 M 164.1,169.7 69.1,126.63333 M 84.3,243.16667 164.1,169.7 M 127.36667,243.16667 47.566667,169.7 m 115.266663,-2.53333 -94.999997,-38 m 19,114 75.999997,-76 m -38,76 -75.999997,-76 M 161.56667,164.63333 66.566667,131.7 m 22.8,111.46667 72.200003,-78.53334 M 122.3,243.16667 50.1,164.63333 M 160.3,162.1 65.3,134.23333 M 91.9,243.16667 160.3,162.1 M 119.76667,243.16667 51.366667,162.1 m 107.666663,-2.53333 -94.999997,-22.8 m 30.4,106.4 64.599997,-83.6 m -41.8,83.6 -64.599997,-83.6 M 157.76667,157.03333 62.766667,139.3 m 34.2,103.86667 60.800003,-86.13334 M 114.7,243.16667 53.9,157.03333 M 156.5,154.5 61.5,141.83333 m 38,101.33334 57,-88.66667 M 112.16667,243.16667 55.166667,154.5 m 100.066663,-2.53333 -94.999997,-7.6 m 41.799997,98.8 53.2,-91.2 m -45.6,91.2 -53.199997,-91.2 M 153.96667,149.43333 58.966667,146.9 m 45.600003,96.26667 49.4,-93.73334 M 107.1,243.16667 57.7,149.43333 m 95,-2.53333 -95,2.53333 M 107.1,243.16667 152.7,146.9 M 104.56667,243.16667 58.966667,146.9 m 92.466663,-2.53333 -94.999997,7.6 m 53.199997,91.2 41.8,-98.8 m -49.4,98.8 -41.799997,-98.8 M 150.16667,141.83333 55.166667,154.5 m 57.000003,88.66667 38,-101.33334 M 99.5,243.16667 61.5,141.83333 M 148.9,139.3 53.9,157.03333 M 114.7,243.16667 148.9,139.3 M 96.966667,243.16667 62.766667,139.3 m 84.866663,-2.53333 -94.999997,22.8 m 64.599997,83.6 30.4,-106.4 m -53.199997,106.4 -30.4,-106.4 M 146.36667,134.23333 51.366667,162.1 m 68.400003,81.06667 26.6,-108.93334 M 91.9,243.16667 65.3,134.23333 M 145.1,131.7 50.1,164.63333 M 122.3,243.16667 145.1,131.7 M 89.366667,243.16667 66.566667,131.7 m 77.266663,-2.53333 -94.999997,38 m 75.999997,76 19,-114 m -56.999997,114 -19,-114 M 142.56667,126.63333 47.566667,169.7 m 79.800003,73.46667 15.2,-116.53334 M 84.3,243.16667 69.1,126.63333 M 141.3,124.1 46.3,172.23333 M 129.9,243.16667 141.3,124.1 M 81.766667,243.16667 70.366667,124.1 m 69.666663,-2.53333 -94.999997,53.2 m 87.399997,68.4 7.6,-121.6 m -60.799997,121.6 -7.6,-121.6 M 138.76667,119.03333 43.766667,177.3 m 91.200003,65.86667 3.8,-124.13334 M 76.7,243.16667 72.9,119.03333 m 64.6,-2.53333 -95,63.33333 m 95,63.33334 V 116.5 M 74.166667,243.16667 V 116.5 m 62.066663,-2.53333 -94.999997,68.4 m 98.799997,60.8 -3.8,-129.2 m -64.599997,129.2 3.8,-129.2 M 134.96667,111.43333 39.966667,184.9 m 102.600003,58.26667 -7.6,-131.73334 M 69.1,243.16667 76.7,111.43333 m 57,-2.53333 -95,78.53333 M 145.1,243.16667 133.7,108.9 M 66.566667,243.16667 77.966667,108.9 m 54.466663,-2.53333 -94.999997,83.6 m 110.199997,53.2 -15.2,-136.8 m -68.399997,136.8 15.2,-136.8 M 131.16667,103.83333 36.166667,192.5 m 114.000003,50.66667 -19,-139.33334 M 61.5,243.16667 80.5,103.83333 M 129.9,101.3 34.9,195.03333 M 152.7,243.16667 129.9,101.3 M 58.966667,243.16667 81.766667,101.3 M 128.63333,98.766667 33.633333,197.56667 m 121.599997,45.6 -26.6,-144.400003 m -72.199997,144.400003 26.6,-144.400003 M 127.36667,96.233333 32.366667,200.1 m 125.400003,43.06667 -30.4,-146.933337 M 53.9,243.16667 84.3,96.233333 M 126.1,93.7 31.1,202.63333 M 160.3,243.16667 126.1,93.7 M 51.366667,243.16667 85.566667,93.7 M 124.83333,91.166667 29.833333,205.16667 m 132.999997,38 -38,-152.000003 m -75.999997,152.000003 38,-152.000003 M 123.56667,88.633333 28.566667,207.7 m 136.800003,35.46667 -41.8,-154.533337 M 46.3,243.16667 88.1,88.633333 M 122.3,86.1 27.3,210.23333 M 167.9,243.16667 122.3,86.1 M 43.766667,243.16667 89.366667,86.1 M 121.03333,83.566667 26.033333,212.76667 m 144.399997,30.4 -49.4,-159.600003 m -79.799997,159.600003 49.4,-159.600003 M 119.76667,81.033333 24.766667,215.3 m 148.200003,27.86667 -53.2,-162.133337 M 38.7,243.16667 91.9,81.033333 M 118.5,78.5 23.5,217.83333 m 152,25.33334 L 118.5,78.5 M 36.166667,243.16667 93.166667,78.5 M 117.23333,75.966667 22.233333,220.36667 m 155.799997,22.8 -60.8,-167.200003 m -83.599997,167.200003 60.8,-167.200003 M 115.96667,73.433333 20.966667,222.9 m 159.600003,20.26667 -64.6,-169.733337 M 31.1,243.16667 95.7,73.433333 M 114.7,70.9 19.7,225.43333 M 183.1,243.16667 114.7,70.9 M 28.566667,243.16667 96.966667,70.9 M 113.43333,68.366667 18.433333,227.96667 m 167.199997,15.2 -72.2,-174.800003 m -87.399997,174.800003 72.2,-174.800003 M 112.16667,65.833333 17.166667,230.5 m 171.000003,12.66667 -76,-177.333337 M 23.5,243.16667 99.5,65.833333 M 110.9,63.3 15.9,233.03333 M 190.7,243.16667 110.9,63.3 M 20.966667,243.16667 100.76667,63.3 m 8.86666,-2.533333 -94.999997,174.800003 m 178.599997,7.6 -83.6,-182.400003 M 18.433333,243.16667 102.03333,60.766667 M 108.36667,58.233333 13.366667,238.1 m 182.400003,5.06667 -87.4,-184.933337 M 15.9,243.16667 103.3,58.233333 M 107.1,55.7 12.1,240.63333 M 198.3,243.16667 107.1,55.7 M 13.366667,243.16667 104.56667,55.7"
       inkscape:export-xdpi="96"
       inkscape:export-ydpi="96" />
  </g>
</svg>
