<?xml version="1.0" encoding="UTF-8" standalone="no"?>
<svg
   xmlns:dc="http://purl.org/dc/elements/1.1/"
   xmlns:cc="http://creativecommons.org/ns#"
   xmlns:rdf="http://www.w3.org/1999/02/22-rdf-syntax-ns#"
   xmlns:svg="http://www.w3.org/2000/svg"
   xmlns="http://www.w3.org/2000/svg"
   xmlns:xlink="http://www.w3.org/1999/xlink"
   xmlns:sodipodi="http://sodipodi.sourceforge.net/DTD/sodipodi-0.dtd"
   xmlns:inkscape="http://www.inkscape.org/namespaces/inkscape"
   width="200mm"
   height="200mm"
   viewBox="0 0 200 200"
   version="1.1"
   id="svg8"
   sodipodi:docname="16points.svg"
   inkscape:version="1.0.2 (e86c8708, 2021-01-15)">
  <defs
     id="defs2">
    <linearGradient
       inkscape:collect="always"
       id="linearGradient995">
      <stop
         style="stop-color:#d8eb7a;stop-opacity:1"
         offset="0"
         id="stop985" />
      <stop
         style="stop-color:#34a8bb;stop-opacity:0.99190283"
         offset="0.25"
         id="stop987" />
      <stop
         style="stop-color:#00cc00;stop-opacity:1"
         offset="0.5"
         id="stop989" />
      <stop
         style="stop-color:#4603f2;stop-opacity:1"
         offset="0.75"
         id="stop991" />
      <stop
         style="stop-color:#ff0000;stop-opacity:0.97570848"
         offset="1"
         id="stop993" />
    </linearGradient>
    <linearGradient
       inkscape:collect="always"
       id="linearGradient965">
      <stop
         style="stop-color:#d8eb7a;stop-opacity:1"
         offset="0"
         id="stop961" />
      <stop
         style="stop-color:#9aa8bb;stop-opacity:0"
         offset="0.25"
         id="stop971" />
      <stop
         style="stop-color:#000000;stop-opacity:0.49803922;"
         offset="0.5"
         id="stop969" />
      <stop
         style="stop-color:#000000;stop-opacity:0.24705882;"
         offset="0.75"
         id="stop973" />
      <stop
         style="stop-color:#ff0000;stop-opacity:0.97570848"
         offset="1"
         id="stop963" />
    </linearGradient>
    <radialGradient
       inkscape:collect="always"
       xlink:href="#linearGradient965"
       id="radialGradient967"
       cx="105"
       cy="148.5"
       fx="105"
       fy="148.5"
       r="100"
       gradientUnits="userSpaceOnUse"
       gradientTransform="rotate(-45,105,148.5)" />
    <radialGradient
       inkscape:collect="always"
       xlink:href="#linearGradient995"
       id="radialGradient983"
       gradientUnits="userSpaceOnUse"
       cx="105"
       cy="148.5"
       fx="105"
       fy="148.5"
       r="100"
       gradientTransform="rotate(-45,105,148.5)" />
    <radialGradient
       inkscape:collect="always"
       xlink:href="#linearGradient965"
       id="radialGradient999"
       gradientUnits="userSpaceOnUse"
       cx="105"
       cy="148.5"
       fx="105"
       fy="148.5"
       r="100" />
    <radialGradient
       inkscape:collect="always"
       xlink:href="#linearGradient995"
       id="radialGradient1001"
       gradientUnits="userSpaceOnUse"
       cx="105"
       cy="148.5"
       fx="105"
       fy="148.5"
       r="100" />
    <radialGradient
       inkscape:collect="always"
       xlink:href="#linearGradient965"
       id="radialGradient1005"
       gradientUnits="userSpaceOnUse"
       cx="105"
       cy="148.5"
       fx="105"
       fy="148.5"
       r="100"
       gradientTransform="rotate(22.5,105,148.5)" />
    <radialGradient
       inkscape:collect="always"
       xlink:href="#linearGradient995"
       id="radialGradient1007"
       gradientUnits="userSpaceOnUse"
       cx="105"
       cy="148.5"
       fx="105"
       fy="148.5"
       r="100"
       gradientTransform="rotate(22.5,105,148.5)" />
    <radialGradient
       inkscape:collect="always"
       xlink:href="#linearGradient965"
       id="radialGradient1011"
       gradientUnits="userSpaceOnUse"
       gradientTransform="rotate(67.5,105,148.5)"
       cx="105"
       cy="148.5"
       fx="105"
       fy="148.5"
       r="100" />
    <radialGradient
       inkscape:collect="always"
       xlink:href="#linearGradient995"
       id="radialGradient1013"
       gradientUnits="userSpaceOnUse"
       gradientTransform="rotate(67.5,105,148.5)"
       cx="105"
       cy="148.5"
       fx="105"
       fy="148.5"
       r="100" />
  </defs>
  <sodipodi:namedview
     id="base"
     pagecolor="#ffffff"
     bordercolor="#666666"
     borderopacity="1.0"
     inkscape:pageopacity="0.0"
     inkscape:pageshadow="2"
     inkscape:zoom="0.70514596"
     inkscape:cx="377.95276"
     inkscape:cy="377.95276"
     inkscape:document-units="mm"
     inkscape:current-layer="layer1"
     inkscape:document-rotation="0"
     showgrid="false"
     inkscape:window-width="1252"
     inkscape:window-height="747"
     inkscape:window-x="0"
     inkscape:window-y="25"
     inkscape:window-maximized="0"
     fit-margin-top="0"
     fit-margin-left="0"
     fit-margin-right="0"
     fit-margin-bottom="0" />
  <metadata
     id="metadata5">
    <rdf:RDF>
      <cc:Work
         rdf:about="">
        <dc:format>image/svg+xml</dc:format>
        <dc:type
           rdf:resource="http://purl.org/dc/dcmitype/StillImage" />
        <dc:title></dc:title>
      </cc:Work>
    </rdf:RDF>
  </metadata>
  <g
     inkscape:label="Layer 1"
     inkscape:groupmode="layer"
     id="layer1"
     transform="translate(-4.9999985,-48.499999)">
    <g
       id="g1019">
      <path
         d="M 34.289321,77.789321 105,148.5 m 0,0 70.71068,70.71068 m -141.421359,0 L 105,148.5 m 0,0 70.71068,-70.710679 M 105,148.5 175.71068,77.789321 M 105,148.5 34.289321,219.21068 M 105,148.5 34.289321,219.21068 M 105,148.5 175.71068,77.789321 M 106.01015,149.51015 174.70053,78.799473 M 106.01015,149.51015 35.299473,218.20053 M 103.98985,147.48985 35.299473,218.20053 M 103.98985,147.48985 174.70053,78.799473 M 107.0203,150.5203 173.69038,79.809624 M 107.0203,150.5203 36.309624,217.19038 M 102.9797,146.4797 36.309624,217.19038 M 102.9797,146.4797 173.69038,79.809624 M 108.03046,151.53046 172.68022,80.819776 M 108.03046,151.53046 37.319776,216.18022 M 101.96954,145.46955 37.319776,216.18022 M 101.96954,145.46955 172.68022,80.819776 M 109.04061,152.54061 171.67007,81.829935 M 109.04061,152.54061 38.329935,215.17007 M 100.95939,144.45939 38.329935,215.17007 M 100.95939,144.45939 171.67007,81.829935 M 110.05076,153.55076 170.65991,82.840086 M 110.05076,153.55076 39.340086,214.15991 M 99.949234,143.44923 39.340086,214.15991 M 99.949234,143.44923 170.65991,82.840086 M 111.06092,154.56092 169.64976,83.850238 M 111.06092,154.56092 40.350238,213.14976 M 98.939083,142.43908 40.350238,213.14976 M 98.939083,142.43908 169.64976,83.850238 M 112.07107,155.57107 168.63961,84.860389 M 112.07107,155.57107 41.360389,212.13961 M 97.928931,141.42893 41.360389,212.13961 M 97.928931,141.42893 168.63961,84.860389 M 113.08122,156.58122 167.62946,85.870541 M 113.08122,156.58122 42.370541,211.12946 M 96.918779,140.41878 42.370541,211.12946 M 96.918779,140.41878 167.62946,85.870541 M 114.09137,157.59137 166.61931,86.880692 M 114.09137,157.59137 43.380692,210.11931 M 95.908628,139.40863 43.380692,210.11931 M 95.908628,139.40863 166.61931,86.880692 M 115.10152,158.60152 165.60916,87.890844 M 115.10152,158.60152 44.390844,209.10916 M 94.898476,138.39848 44.390844,209.10916 M 94.898476,138.39848 165.60916,87.890844 M 116.11168,159.61168 164.599,88.901002 M 116.11168,159.61168 45.401002,208.099 M 93.888325,137.38833 45.401002,208.099 M 93.888325,137.38833 164.599,88.901002 M 117.12183,160.62183 163.58885,89.911154 M 117.12183,160.62183 46.411154,207.08885 M 92.878166,136.37817 46.411154,207.08885 M 92.878166,136.37817 163.58885,89.911154 m -45.45687,71.720826 44.44671,-70.710675 m -44.44671,70.710675 -70.710675,44.44671 m 44.44671,-70.71067 -44.44671,70.71067 m 44.44671,-70.71067 70.710675,-44.446715 m -43.43655,71.720835 42.4264,-70.710683 m -42.4264,70.710683 -70.710683,42.4264 M 90.857863,134.35786 48.431457,205.06854 M 90.857863,134.35786 161.56854,91.931457 m -41.41625,71.720833 40.4061,-70.710681 m -40.4061,70.710681 -70.710681,40.4061 M 89.847712,133.34771 49.441609,204.05839 M 89.847712,133.34771 160.55839,92.941609 m -39.39595,71.720831 38.3858,-70.71068 m -38.3858,70.71068 -70.71068,38.3858 m 38.3858,-70.71068 -38.3858,70.71068 m 38.3858,-70.71068 70.71068,-38.3858 m -37.37565,71.72083 36.3655,-70.710678 m -36.3655,70.710678 -70.710678,36.3655 M 87.827409,131.32741 51.461912,202.03809 M 87.827409,131.32741 158.53809,94.961912 m -35.35534,71.720838 34.34518,-70.71068 m -34.34518,70.71068 -70.71068,34.34518 M 86.817257,130.31726 52.47207,201.02793 M 86.817257,130.31726 157.52793,95.97207 M 124.1929,167.6929 156.51778,96.982222 M 124.1929,167.6929 53.482222,200.01778 M 85.807098,129.3071 53.482222,200.01778 M 85.807098,129.3071 156.51778,96.982222 M 125.20305,168.70305 155.50763,97.992373 M 125.20305,168.70305 54.492373,199.00763 M 84.796947,128.29695 54.492373,199.00763 M 84.796947,128.29695 155.50763,97.992373 M 126.2132,169.7132 154.49747,99.002525 M 126.2132,169.7132 55.502525,197.99747 m 28.28427,-70.71067 -28.28427,70.71067 M 83.786795,127.2868 154.49747,99.002525 m -27.27412,71.720835 26.26397,-70.71068 m -26.26397,70.71068 -70.710674,26.26396 m 26.263968,-70.71068 -26.263968,70.71068 m 26.263968,-70.71068 70.710676,-26.26396 m -25.25381,71.72083 24.24366,-70.71068 m -24.24366,70.71068 -70.710682,24.24366 m 24.243664,-70.71068 -24.243664,70.71068 m 24.243664,-70.71068 70.710678,-24.24366 m -23.23351,71.72083 22.22336,-70.71068 m -22.22336,70.71068 -70.710681,22.22336 m 22.223362,-70.71068 -22.223362,70.71068 m 22.223362,-70.71068 70.710679,-22.22336 m -21.2132,71.72084 20.20304,-70.71068 m -20.20304,70.71068 -70.710682,20.20304 m 20.203051,-70.71067 -20.203051,70.71067 m 20.203051,-70.71067 70.710671,-20.20305 m -19.19289,71.72083 18.18274,-70.71068 m -18.18274,70.71068 -70.71068,18.18274 M 78.736031,122.23603 60.55329,192.94671 m 18.182741,-70.71068 70.710679,-18.18274 m -17.17259,71.72083 16.16244,-70.71068 m -16.16244,70.71068 -70.710679,16.16244 m 16.162438,-70.71068 -16.162438,70.71068 m 16.162438,-70.71068 70.710681,-16.16244 m -15.15229,71.72083 14.14214,-70.71068 m -14.14214,70.71068 -70.710677,14.14214 m 14.142135,-70.71068 -14.142135,70.71068 m 14.142135,-70.71068 70.710682,-14.14214 m -13.13199,71.72083 12.12184,-70.71068 m -12.12184,70.71068 -70.710676,12.12184 M 75.705576,119.20558 63.583744,189.91626 M 75.705576,119.20558 146.41626,107.08374 M 135.30457,178.80457 145.4061,108.0939 M 135.30457,178.80457 64.593896,188.9061 M 74.695424,118.19543 64.593896,188.9061 M 74.695424,118.19543 145.4061,108.0939 m -9.09137,71.72083 8.08122,-70.71068 m -8.08122,70.71068 -70.710683,8.08122 m 8.081226,-70.71068 -8.081226,70.71068 m 8.081226,-70.71068 70.710677,-8.08122 m -7.07107,71.72083 6.06091,-70.71067 m -6.06091,70.71067 -70.710674,6.06091 m 6.060915,-70.71067 -6.060915,70.71067 m 6.060915,-70.71067 70.710669,-6.06091 m -5.05075,71.72083 4.0406,-70.71068 m -4.0406,70.71068 -70.710683,4.0406 m 4.040606,-70.71068 -4.040606,70.71068 m 4.040606,-70.71068 70.710677,-4.0406 m -3.03045,71.72083 2.0203,-70.71068 m -2.0203,70.71068 -70.710681,2.0203 m 2.020302,-70.71068 -2.020302,70.71068 m 2.020302,-70.71068 70.710679,-2.0203 m -1.01015,71.72083 v -70.71068 m 0,70.71068 H 69.64466 m 0,-70.71068 v 70.71068 m 0,-70.71068 h 70.71068 m 1.01015,71.72083 -2.0203,-70.71068 m 2.0203,70.71068 -70.710678,-2.0203 m -2.020304,-70.71068 2.020304,70.71068 m -2.020304,-70.71068 70.710682,2.0203 m 3.03045,71.72083 -4.0406,-70.71068 m 4.0406,70.71068 -70.710676,-4.0406 m -4.040607,-70.71068 4.040607,70.71068 m -4.040607,-70.71068 70.710683,4.0406 m 5.05075,71.72083 -6.06091,-70.71067 m 6.06091,70.71067 -70.710675,-6.06091 m -6.06091,-70.71067 6.06091,70.71067 m -6.06091,-70.71067 70.710675,6.06091 m 7.07107,71.72083 -8.08122,-70.71068 m 8.08122,70.71068 -70.710676,-8.08122 m -8.08122,-70.71068 8.08122,70.71068 m -8.08122,-70.71068 70.710676,8.08122 m 9.09137,71.72083 -10.10153,-70.71067 M 145.4061,188.9061 74.695425,178.80457 m -10.10153,-70.71067 10.10153,70.71067 m -10.10153,-70.71067 70.710675,10.10153 m 11.11168,71.72083 -12.12183,-70.71068 m 12.12183,70.71068 -70.710673,-12.12184 m -12.121834,-70.71068 12.121834,70.71068 m -12.121834,-70.71068 70.710677,12.12184 m 13.13199,71.72083 -14.14214,-70.71068 m 14.14214,70.71068 -70.710682,-14.14214 m -14.142136,-70.71068 14.142136,70.71068 m -14.142136,-70.71068 70.710678,14.14214 m 15.15229,71.72083 -16.16244,-70.71068 m 16.16244,70.71068 -70.71068,-16.16244 m -16.16244,-70.71068 16.16244,70.71068 m -16.16244,-70.71068 70.71068,16.16244 m 17.17259,71.72083 -18.18274,-70.71068 m 18.18274,70.71068 -70.710679,-18.18274 m -18.182742,-70.71068 18.182742,70.71068 m -18.182742,-70.71068 70.710681,18.18274 m 19.19289,71.72083 -20.20304,-70.71068 m 20.20304,70.71068 -70.710677,-20.20304 m -20.203046,-70.71068 20.203046,70.71068 m -20.203046,-70.71068 70.710683,20.20304 m 21.2132,71.72084 -22.22336,-70.71068 m 22.22336,70.71068 -70.710679,-22.22336 m -22.223355,-70.71067 22.223355,70.71067 m -22.223355,-70.71067 70.710674,22.22335 m 23.23351,71.72083 -24.24366,-70.71068 m 24.24366,70.71068 -70.710677,-24.24366 m -24.243666,-70.71068 24.243666,70.71068 m -24.243666,-70.71068 70.710683,24.24366 m 25.25381,71.72083 -26.26397,-70.71067 m 26.26397,70.71067 -70.710675,-26.26396 M 56.512676,100.01268 82.776645,170.72336 M 56.512676,100.01268 127.22335,126.27665 M 154.49747,197.99747 126.2132,127.2868 M 154.49747,197.99747 83.786796,169.7132 M 55.502524,99.002525 83.786796,169.7132 M 55.502524,99.002525 126.2132,127.2868 m 29.29443,71.72083 -30.30458,-70.71068 m 30.30458,70.71068 -70.710682,-30.30458 M 54.492373,97.992373 84.796948,168.70305 M 54.492373,97.992373 125.20305,128.29695 M 156.51778,200.01778 124.1929,129.3071 M 156.51778,200.01778 85.807099,167.6929 M 53.482221,96.982222 85.807099,167.6929 M 53.482221,96.982222 124.1929,129.3071 m 33.33503,71.72083 -34.34518,-70.71068 m 34.34518,70.71068 -70.710679,-34.34518 M 52.47207,95.97207 86.817251,166.68275 M 52.47207,95.97207 l 70.71068,34.34518 m 35.35534,71.72084 -36.3655,-70.71068 m 36.3655,70.71068 -70.710681,-36.3655 M 51.461918,94.961919 87.827409,165.67259 M 51.461918,94.961919 122.17259,131.32741 m 37.37565,71.72083 -38.3858,-70.71068 m 38.3858,70.71068 -70.710679,-38.3858 M 50.451759,93.95176 88.837561,164.66244 m -38.385802,-70.71068 70.710681,38.3858 m 39.39595,71.72083 -40.4061,-70.71068 m 40.4061,70.71068 -70.710678,-40.4061 M 49.441608,92.941609 89.847712,163.65229 M 49.441608,92.941609 120.15229,133.34771 m 41.41625,71.72083 -42.4264,-70.71068 m 42.4264,70.71068 -70.710676,-42.4264 M 48.431456,91.931457 90.857864,162.64214 M 48.431456,91.931457 119.14214,134.35786 m 43.43655,71.72083 -44.44671,-70.71067 m 44.44671,70.71067 -70.710675,-44.44671 M 47.421305,90.921305 91.868015,161.63198 M 47.421305,90.921305 118.13198,135.36802 m 45.45687,71.72083 -46.46702,-70.71068 m 46.46702,70.71068 -70.710683,-46.46702 M 46.411153,89.911154 92.878167,160.62183 M 46.411153,89.911154 117.12183,136.37817 M 164.599,208.099 116.11168,137.38832 M 164.599,208.099 93.888318,159.61168 M 45.401002,88.901002 93.888318,159.61168 M 45.401002,88.901002 116.11168,137.38832 m 49.49748,71.72084 -50.50764,-70.71068 m 50.50764,70.71068 -70.710683,-50.50764 M 44.39085,87.890851 94.898477,158.60152 M 44.39085,87.890851 115.10152,138.39848 m 51.51779,71.72083 -52.52794,-70.71068 m 52.52794,70.71068 -70.710681,-52.52794 M 43.380692,86.880692 95.908629,157.59137 M 43.380692,86.880692 114.09137,139.40863 m 53.53809,71.72083 -54.54824,-70.71068 m 54.54824,70.71068 -70.71068,-54.54824 M 42.37054,85.870541 96.91878,156.58122 M 42.37054,85.870541 113.08122,140.41878 m 55.55839,71.72083 -56.56854,-70.71068 m 56.56854,70.71068 -70.710678,-56.56854 M 41.360388,84.860389 97.928932,155.57107 M 41.360388,84.860389 112.07107,141.42893 m 57.57869,71.72083 -58.58884,-70.71068 m 58.58884,70.71068 -70.710677,-58.58884 M 40.350237,83.850238 98.939083,154.56092 M 40.350237,83.850238 111.06092,142.43908 m 59.59899,71.72083 -60.60915,-70.71067 m 60.60915,70.71067 -70.710675,-60.60915 M 39.340085,82.840086 99.949235,153.55076 M 39.340085,82.840086 110.05076,143.44924 m 61.6193,71.72083 -62.62945,-70.71068 m 62.62945,70.71068 -70.71067,-62.62946 M 38.329934,81.829935 100.95939,152.54061 M 38.329934,81.829935 109.04061,144.45939 m 63.63961,71.72083 -64.64977,-70.71067 m 64.64977,70.71067 -70.71068,-64.64977 M 37.319782,80.819783 101.96954,151.53045 M 37.319782,80.819783 108.03045,145.46955 M 173.69037,217.19038 107.0203,146.4797 M 173.69037,217.19038 102.9797,150.5203 M 36.309624,79.809624 102.9797,150.5203 M 36.309624,79.809624 107.0203,146.4797 m 67.68023,71.72083 -68.69038,-70.71068 m 68.69038,70.71068 -70.71068,-68.69038 M 35.299472,78.799473 103.98985,149.51015 M 35.299472,78.799473 106.01015,147.48985"
         style="fill:url(#radialGradient967);fill-opacity:1;stroke:url(#radialGradient983);stroke-width:0.264583;stroke-linecap:butt;stroke-linejoin:miter;stroke-opacity:1"
         id="path133" />
      <path
         d="M 105,48.499999 V 148.5 m 0,0 v 100 M 4.9999985,148.5 H 105 m 0,0 h 100 m -100,0 h 100 m -100,0 H 4.9999985 M 105,148.5 H 4.9999985 M 105,148.5 H 205 M 105,149.92857 203.57143,148.5 M 105,149.92857 6.4285678,148.5 M 105,147.07143 6.4285678,148.5 M 105,147.07143 203.57143,148.5 M 105,151.35714 202.14286,148.5 M 105,151.35714 7.8571363,148.5 M 105,145.64286 7.8571363,148.5 M 105,145.64286 202.14286,148.5 M 105,152.78572 200.71429,148.5 M 105,152.78572 9.2857126,148.5 M 104.99999,144.21429 9.2857126,148.5 M 104.99999,144.21429 200.71429,148.5 M 105,154.21429 199.28571,148.5 M 105,154.21429 10.714287,148.5 M 105,142.78571 10.714287,148.5 M 105,142.78571 199.28571,148.5 M 105,155.64285 197.85714,148.5 M 105,155.64285 12.142862,148.5 M 105,141.35714 12.142862,148.5 M 105,141.35714 197.85714,148.5 M 105,157.07144 196.42857,148.5 M 105,157.07144 13.571432,148.5 M 105,139.92857 13.571432,148.5 M 105,139.92857 196.42857,148.5 M 105,158.5 l 90,-10 m -90,10 -90,-10 m 90,-10 -90,10 m 90,-10 90,10 M 105,159.92857 193.57143,148.5 M 105,159.92857 16.428569,148.5 M 105,137.07143 16.428569,148.5 M 105,137.07143 193.57143,148.5 M 105,161.35714 192.14286,148.5 M 105,161.35714 17.857138,148.5 M 105,135.64286 17.857138,148.5 M 105,135.64286 192.14286,148.5 M 105,162.78571 190.71429,148.5 M 105,162.78571 19.285707,148.5 M 105,134.21429 19.285707,148.5 M 105,134.21429 190.71429,148.5 M 105,164.21429 189.28571,148.5 M 105,164.21429 20.714288,148.5 M 105,132.78572 20.714288,148.5 M 105,132.78572 189.28571,148.5 M 105,165.64286 187.85714,148.5 M 105,165.64286 22.142857,148.5 M 105,131.35714 22.142857,148.5 M 105,131.35714 187.85714,148.5 M 105,167.07142 186.42857,148.5 M 105,167.07142 23.571433,148.5 M 105,129.92857 23.571433,148.5 M 105,129.92857 186.42857,148.5 M 105,168.50001 185,148.5 M 105,168.50001 25.000002,148.5 M 105,128.5 25.000002,148.5 M 105,128.5 l 80,20 M 105,169.92857 183.57143,148.5 M 105,169.92857 26.428571,148.5 M 105,127.07143 26.428571,148.5 M 105,127.07143 183.57143,148.5 M 105,171.35714 182.14286,148.5 M 105,171.35714 27.85714,148.5 M 105,125.64286 27.85714,148.5 M 105,125.64286 182.14286,148.5 M 105,172.78571 180.71429,148.5 M 105,172.78571 29.285709,148.5 M 105,124.21429 29.285709,148.5 M 105,124.21429 180.71429,148.5 M 105,174.21429 179.28571,148.5 M 105,174.21429 30.714289,148.5 M 105,122.78572 30.714289,148.5 M 105,122.78572 179.28571,148.5 M 105,175.64286 177.85714,148.5 M 105,175.64286 32.142859,148.5 M 105,121.35714 32.142859,148.5 M 105,121.35714 177.85714,148.5 M 105,177.07143 176.42857,148.5 M 105,177.07143 33.571427,148.5 M 105,119.92857 33.571427,148.5 M 105,119.92857 176.42857,148.5 M 105,178.49999 175,148.5 M 105,178.49999 35.000004,148.5 M 105,118.5 35.000004,148.5 M 105,118.5 l 70,30 M 104.99999,179.92857 173.57143,148.5 M 104.99999,179.92857 36.428572,148.5 M 105,117.07143 36.428572,148.5 M 105,117.07143 173.57143,148.5 M 105,181.35714 172.14286,148.5 M 105,181.35714 37.857141,148.5 M 105,115.64286 37.857141,148.5 M 105,115.64286 172.14286,148.5 M 105,182.78571 170.71429,148.5 M 105,182.78571 39.28571,148.5 M 105,114.21429 39.28571,148.5 M 105,114.21429 170.71429,148.5 M 105,184.21429 169.28571,148.5 M 105,184.21429 40.714291,148.5 M 105,112.78572 40.714291,148.5 M 105,112.78572 169.28571,148.5 M 105,185.64286 167.85714,148.5 M 105,185.64286 42.14286,148.5 M 105,111.35714 42.14286,148.5 M 105,111.35714 167.85714,148.5 M 105,187.07143 166.42857,148.5 M 105,187.07143 43.571429,148.5 M 105,109.92857 43.571429,148.5 M 105,109.92857 166.42857,148.5 M 105,188.5 l 60,-40 m -60,40 -60.000002,-40 M 105,108.5 44.999998,148.5 M 105,108.5 l 60,40 M 105,189.92857 163.57144,148.5 M 105,189.92857 46.428567,148.5 M 105,107.07143 46.428567,148.5 M 105,107.07143 163.57144,148.5 M 105,191.35713 162.14286,148.5 M 105,191.35713 47.857143,148.5 M 105,105.64286 47.857143,148.5 M 105,105.64286 162.14286,148.5 M 105,192.78572 160.71429,148.5 M 105,192.78572 49.285712,148.5 M 105,104.21429 49.285712,148.5 M 105,104.21429 160.71429,148.5 M 105,194.21428 159.28571,148.5 M 105,194.21428 50.714293,148.5 M 105,102.78572 50.714293,148.5 M 105,102.78572 159.28571,148.5 M 105,195.64287 157.85714,148.5 M 105,195.64287 52.142861,148.5 M 105,101.35714 52.142861,148.5 M 105,101.35714 157.85714,148.5 M 105,197.07143 156.42857,148.5 M 105,197.07143 53.571431,148.5 M 105,99.928567 53.571431,148.5 M 105,99.928567 156.42857,148.5 M 105,198.5 l 50,-50 m -50,50 -50.000001,-50 M 105,98.499998 54.999999,148.5 M 105,98.499998 155,148.5 M 105,199.92857 153.57143,148.5 M 105,199.92857 56.428568,148.5 M 105,97.071429 56.428568,148.5 M 105,97.071429 153.57143,148.5 M 105,201.35714 152.14287,148.5 M 105,201.35714 57.857138,148.5 M 105,95.642861 57.857138,148.5 M 105,95.642861 152.14287,148.5 M 105,202.7857 150.71428,148.5 M 105,202.7857 59.285713,148.5 M 105,94.214291 59.285713,148.5 M 105,94.214291 150.71428,148.5 M 105,204.21429 149.28572,148.5 M 105,204.21429 60.714287,148.5 M 105,92.785716 60.714287,148.5 M 105,92.785716 149.28572,148.5 M 105,205.64285 147.85713,148.5 M 105,205.64285 62.142863,148.5 M 105,91.357142 62.142863,148.5 M 105,91.357142 147.85713,148.5 M 104.99999,207.07143 146.42857,148.5 M 104.99999,207.07143 63.571432,148.5 M 105,89.928565 63.571432,148.5 M 105,89.928565 146.42857,148.5 M 105,208.5 l 40,-60 m -40,60 -39.999999,-60 M 105,88.499997 65.000001,148.5 M 105,88.499997 145,148.5 M 105,209.92857 143.57143,148.5 M 105,209.92857 66.42857,148.5 M 105,87.071428 66.42857,148.5 M 105,87.071428 143.57143,148.5 M 105,211.35714 142.14286,148.5 M 105,211.35714 67.857139,148.5 M 105,85.642859 67.857139,148.5 M 105,85.642859 142.14286,148.5 M 105,212.78571 140.7143,148.5 M 105,212.78571 69.285708,148.5 M 105,84.21429 69.285708,148.5 M 105,84.21429 140.7143,148.5 M 105,214.21429 139.28571,148.5 M 105,214.21429 70.714288,148.5 M 105,82.785721 70.714288,148.5 M 105,82.785721 139.28571,148.5 M 105,215.64286 137.85715,148.5 M 105,215.64286 72.142858,148.5 M 105,81.35714 72.142858,148.5 M 105,81.35714 137.85715,148.5 M 105,217.07143 136.42856,148.5 M 105,217.07143 73.571427,148.5 M 105,79.928571 73.571427,148.5 M 105,79.928571 136.42856,148.5 M 105,218.49999 135,148.5 M 105,218.49999 75.000003,148.5 M 105,78.499999 75.000003,148.5 M 105,78.499999 135,148.5 M 105,219.92858 133.57143,148.5 M 105,219.92858 76.428572,148.5 M 105,77.071429 76.428572,148.5 M 105,77.071429 133.57143,148.5 M 105,221.35714 132.14286,148.5 M 105,221.35714 77.85714,148.5 M 105,75.642859 77.85714,148.5 M 105,75.642859 132.14286,148.5 M 105,222.78571 130.71429,148.5 M 105,222.78571 79.28571,148.5 M 105,74.214289 79.28571,148.5 M 105,74.214289 130.71429,148.5 M 105,224.21429 129.28571,148.5 M 105,224.21429 80.71429,148.5 M 105,72.785719 80.71429,148.5 M 105,72.785719 129.28571,148.5 M 105,225.64286 127.85714,148.5 M 105,225.64286 82.142859,148.5 M 105,71.357138 82.142859,148.5 M 105,71.357138 127.85714,148.5 M 105,227.07143 126.42857,148.5 M 105,227.07143 83.571428,148.5 M 105,69.928569 83.571428,148.5 M 105,69.928569 126.42857,148.5 M 105,228.5 l 20.00001,-80 M 105,228.5 84.999997,148.5 M 105,68.499998 84.999997,148.5 M 105,68.499998 125.00001,148.5 M 105,229.92856 123.57142,148.5 M 105,229.92856 86.428573,148.5 M 105,67.071428 86.428573,148.5 M 105,67.071428 123.57142,148.5 M 105,231.35715 122.14286,148.5 M 105,231.35715 87.857142,148.5 M 105,65.642858 87.857142,148.5 M 105,65.642858 122.14286,148.5 M 105,232.78571 120.71429,148.5 M 105,232.78571 89.285711,148.5 M 105,64.214289 89.285711,148.5 M 105,64.214289 120.71429,148.5 M 105,234.2143 119.28571,148.5 M 105,234.2143 90.714292,148.5 M 105,62.785719 90.714292,148.5 M 105,62.785719 119.28571,148.5 M 105,235.64286 117.85714,148.5 M 105,235.64286 92.142861,148.5 M 105,61.357139 92.142861,148.5 M 105,61.357139 117.85714,148.5 M 105,237.07143 116.42857,148.5 M 105,237.07143 93.57143,148.5 M 105,59.928569 93.57143,148.5 M 105,59.928569 116.42857,148.5 M 105,238.5 l 10,-90 m -10,90 -10.000001,-90 M 105,58.499998 94.999999,148.5 M 105,58.499998 115,148.5 M 105,239.92857 113.57144,148.5 M 105,239.92857 96.428567,148.5 M 105,57.071429 96.428567,148.5 M 105,57.071429 113.57144,148.5 M 105,241.35714 112.14285,148.5 M 105,241.35714 97.857144,148.5 M 105,55.642858 97.857144,148.5 M 105,55.642858 112.14285,148.5 m -7.14286,94.28571 5.7143,-94.28571 m -5.7143,94.28571 L 99.285715,148.5 M 105,54.214289 99.285715,148.5 M 105,54.214289 110.71429,148.5 M 105,244.21428 109.2857,148.5 M 105,244.21428 100.71429,148.49999 M 105,52.785718 100.71429,148.49999 M 105,52.785718 109.2857,148.5 M 104.99999,245.64286 107.85714,148.5 M 104.99999,245.64286 102.14286,148.5 M 105,51.357138 102.14286,148.5 M 105,51.357138 107.85714,148.5 M 105,247.07143 106.42857,148.5 M 105,247.07143 103.57143,148.5 M 105,49.928568 103.57143,148.5 M 105,49.928568 106.42857,148.5"
         style="fill:url(#radialGradient999);fill-opacity:1;stroke:url(#radialGradient1001);stroke-width:0.264583;stroke-linecap:butt;stroke-linejoin:miter;stroke-opacity:1"
         id="path997" />
      <path
         d="M 143.26834,56.112046 105,148.5 m 0,0 -38.268343,92.38795 M 12.612045,110.23166 105,148.5 m 0,0 92.38795,38.26834 M 105,148.5 197.38795,186.76834 M 105,148.5 12.612045,110.23166 M 105,148.5 12.612045,110.23166 M 105,148.5 l 92.38795,38.26834 m -92.93464,-36.94851 91.61482,36.40182 M 104.45331,149.81983 13.931871,110.77835 m 91.614819,36.40182 -91.614819,-36.40182 m 91.614819,36.40182 90.52144,39.04148 m -92.16151,-35.082 90.84168,34.53531 M 103.90662,151.13965 15.251696,111.32504 m 90.841684,34.53531 -90.841684,-34.53531 m 90.841684,34.53531 88.65492,39.81461 m -91.38837,-33.21547 90.06854,32.66878 M 103.35993,152.45949 16.571529,111.87173 m 90.068531,32.66879 -90.068531,-32.66879 m 90.068531,32.66879 86.78841,40.58775 m -90.61523,-31.34895 89.2954,30.80226 m -89.2954,-30.80226 -84.921881,-41.3609 m 89.295401,30.80226 -89.295401,-30.80226 m 89.295401,30.80226 84.92188,41.3609 m -89.84209,-29.48245 88.52226,28.93576 M 102.26655,155.09913 19.211191,112.96511 m 88.522259,28.93575 -88.522259,-28.93575 m 88.522259,28.93575 83.05536,42.13403 m -89.06896,-27.61591 87.74913,27.06922 M 101.71985,156.41898 20.531017,113.5118 M 108.28014,140.58103 20.531017,113.5118 m 87.749123,27.06923 81.18884,42.90717 m -88.29581,-25.7494 86.97599,25.20271 M 101.17317,157.7388 21.850842,114.05849 M 108.82683,139.2612 21.850842,114.05849 m 86.975988,25.20271 79.32233,43.68031 m -87.52268,-23.88289 86.20285,23.3362 m -86.20285,-23.3362 -77.455813,-44.45344 m 86.202853,23.3362 -86.202853,-23.3362 m 86.202853,23.3362 77.45581,44.45344 m -86.74954,-22.01637 85.42971,21.46968 M 100.07979,160.37845 24.490493,115.15187 m 85.429717,21.46968 -85.429717,-21.46968 m 85.429717,21.46968 75.58929,45.22658 M 99.533095,161.69828 184.18968,181.30144 M 99.533095,161.69828 25.810319,115.69856 M 110.4669,135.30173 25.810319,115.69856 m 84.656581,19.60317 73.72278,45.99971 M 98.986401,163.01811 182.86984,180.75475 M 98.986401,163.01811 27.130156,116.24525 M 111.01359,133.9819 27.130156,116.24525 m 83.883434,17.73665 71.85625,46.77285 m -84.430129,-16.41681 83.110309,15.87011 m -83.110309,-15.87011 -69.98973,-47.546 m 83.110309,15.87012 -83.110309,-15.87012 m 83.110309,15.87012 69.98973,47.54599 m -83.656995,-14.55029 82.337165,14.0036 M 97.893025,165.65776 29.769813,117.33864 m 82.337167,14.0036 -82.337167,-14.0036 m 82.337167,14.0036 68.12321,48.31912 M 97.346327,166.9776 178.91036,179.11467 M 97.346327,166.9776 31.089639,117.88533 m 81.564031,12.13708 -81.564031,-12.13708 m 81.564031,12.13708 66.25669,49.09226 M 96.799641,168.29742 177.59054,178.56798 M 96.799641,168.29742 32.409465,118.43202 m 80.790895,10.27056 -80.790895,-10.27056 m 80.790895,10.27056 64.39018,49.8654 m -81.337589,-8.95074 80.017759,8.40405 M 96.252951,169.61724 33.72929,118.97871 m 80.01776,8.40405 -80.01776,-8.40405 m 80.01776,8.40405 62.52366,50.63853 m -80.564449,-7.08422 79.244619,6.53753 M 95.706261,170.93707 35.049116,119.5254 m 79.244624,6.53753 -79.244624,-6.53753 m 79.244624,6.53753 60.65714,51.41167 m -79.791313,-5.21769 78.471483,4.671 m -78.471483,-4.671 -58.790615,-52.18482 m 78.471478,4.67101 -78.471478,-4.67101 m 78.471478,4.67101 58.79062,52.18481 m -79.018173,-3.35118 77.698343,2.80449 M 94.612877,173.57673 37.688778,120.61878 m 77.698342,2.80449 -77.698342,-2.80449 m 77.698342,2.80449 56.9241,52.95795 m -78.245033,-1.48466 76.925203,0.93797 M 94.066187,174.89656 39.008603,121.16547 m 76.925207,0.93797 -76.925207,-0.93797 m 76.925207,0.93797 55.05758,53.73109 m -77.471889,0.38185 76.152069,-0.92854 m -76.152069,0.92854 -53.191065,-54.50422 m 76.152064,-0.92855 -76.152064,0.92855 m 76.152064,-0.92855 53.19107,54.50423 m -76.698773,2.24837 75.378943,-2.79506 m -75.378943,2.79506 -51.324536,-55.27736 m 75.378929,-2.79506 -75.378929,2.79506 m 75.378929,-2.79506 51.32455,55.27736 m -75.925623,4.11489 74.605793,-4.66158 m -74.605793,4.66158 -49.45803,-56.0505 m 74.605793,-4.66158 -74.605793,4.66158 m 74.605793,-4.66158 49.45803,56.0505 m -75.152483,5.98141 73.832663,-6.5281 m -73.832663,6.5281 -47.591515,-56.82364 m 73.832658,-6.5281 -73.832658,6.5281 m 73.832658,-6.5281 47.59152,56.82364 m -74.379357,7.84793 73.059517,-8.39462 M 91.332733,181.4957 45.607749,123.89892 m 73.059511,-8.39461 -73.059511,8.39461 m 73.059511,-8.39461 45.72499,57.59677 m -73.606207,9.71445 72.286377,-10.26114 M 90.786043,182.81553 46.927575,124.44561 m 72.286385,-10.26114 -72.286385,10.26114 m 72.286385,-10.26114 43.85846,58.36992 M 90.239353,184.13535 161.7526,172.0077 M 90.239353,184.13535 48.2474,124.9923 M 119.76065,112.86465 48.2474,124.9923 m 71.51325,-12.12765 41.99195,59.14305 M 89.692662,185.45518 160.43277,171.46101 M 89.692662,185.45518 49.567226,125.53899 m 70.740114,-13.99417 -70.740114,13.99417 m 70.740114,-13.99417 40.12543,59.91619 m -71.286798,15.314 69.966978,-15.86069 m -69.966978,15.86069 -38.25892,-60.68933 m 69.966978,-15.86069 -69.966978,15.86069 m 69.966978,-15.86069 38.25892,60.68933 m -70.513664,17.18051 69.193834,-17.7272 m -69.193834,17.7272 -36.392402,-61.46245 m 69.193836,-17.72721 -69.193836,17.72721 m 69.193836,-17.72721 36.3924,61.46246 m -69.740532,19.04704 68.420702,-19.59373 m -68.420702,19.59373 -34.525879,-62.2356 m 68.420701,-19.59373 -68.420701,19.59373 m 68.420701,-19.59373 34.52588,62.2356 M 87.505902,190.73449 155.15346,169.27424 M 87.505902,190.73449 54.846546,127.72576 M 122.4941,106.26551 54.846546,127.72576 m 67.647554,-21.46025 32.65936,63.00873 M 86.959204,192.05433 153.83363,168.72755 M 86.959204,192.05433 56.166371,128.27245 m 66.874419,-23.32677 -66.874419,23.32677 m 66.874419,-23.32677 30.79284,63.78187 M 86.412518,193.37415 152.5138,168.18086 M 86.412518,193.37415 57.486197,128.81914 m 66.101283,-25.19329 -66.101283,25.19329 m 66.101283,-25.19329 28.92632,64.55501 M 85.865828,194.69398 151.19398,167.63417 M 85.865828,194.69398 58.806022,129.36583 m 65.328148,-27.05981 -65.328148,27.05981 m 65.328148,-27.05981 27.05981,65.32815 M 85.319138,196.0138 149.87415,167.08748 M 85.319138,196.0138 60.125848,129.91252 M 124.68086,100.9862 60.125848,129.91252 m 64.555012,-28.92632 25.19329,66.10128 M 84.772448,197.33363 148.55433,166.5408 M 84.772448,197.33363 61.445674,130.45921 M 125.22755,99.666371 61.445674,130.45921 M 125.22755,99.666371 148.55433,166.5408 M 84.225762,198.65345 147.23449,165.9941 M 84.225762,198.65345 62.765506,131.0059 M 125.77424,98.346545 62.765506,131.0059 M 125.77424,98.346545 147.23449,165.9941 M 83.679064,199.97329 145.91467,165.44741 M 83.679064,199.97329 64.085336,131.55259 M 126.32093,97.026714 64.085336,131.55259 m 62.235594,-34.525876 19.59374,68.420696 m -62.782292,35.8457 61.462442,-36.3924 m -61.462442,36.3924 -17.72721,-69.19383 M 126.86762,95.706883 65.405168,132.09928 m 61.462452,-36.392397 17.7272,69.193827 M 82.585675,202.61294 143.27501,164.35403 M 82.585675,202.61294 66.724994,132.64597 M 127.41432,94.38705 66.724994,132.64597 m 60.689326,-38.25892 15.86069,69.96698 M 82.038994,203.93277 141.95518,163.80734 M 82.038994,203.93277 68.044819,133.19266 M 127.96101,93.067226 68.044819,133.19266 M 127.96101,93.067226 141.95518,163.80734 M 81.492304,205.2526 140.63535,163.26065 M 81.492304,205.2526 69.364645,133.73935 M 128.5077,91.7474 69.364645,133.73935 M 128.5077,91.7474 140.63535,163.26065 M 80.945614,206.57243 139.31553,162.71396 M 80.945614,206.57243 70.684471,134.28604 M 129.05439,90.427574 70.684471,134.28604 M 129.05439,90.427574 139.31553,162.71396 M 80.398924,207.89225 137.99571,162.16727 M 80.398924,207.89225 72.004296,134.83273 M 129.60108,89.107749 72.004296,134.83273 m 57.596784,-45.724981 8.39463,73.059521 m -58.14348,47.04482 56.82364,-47.59152 M 79.85223,209.21209 73.324132,135.37943 M 130.14777,87.787923 73.324132,135.37943 m 56.823638,-47.591507 6.5281,73.832647 m -57.37033,48.91134 56.05051,-49.45802 M 79.30554,210.53191 74.643959,135.92612 M 130.69446,86.468086 74.643959,135.92612 m 56.050501,-49.458034 4.66159,74.605804 m -56.5972,50.77785 55.27735,-51.32455 M 78.75885,211.85174 75.963784,136.47281 M 131.24115,85.14826 75.963784,136.47281 m 55.277366,-51.32455 2.79505,75.37893 M 78.212163,213.17156 132.71639,159.9805 M 78.212163,213.17156 77.283617,137.0195 M 131.78784,83.828432 77.283617,137.0195 M 131.78784,83.828432 132.71639,159.9805 M 77.665466,214.4914 131.39656,159.43381 M 77.665466,214.4914 78.603442,137.56619 M 132.33453,82.508605 78.603442,137.56619 m 53.731088,-55.057585 -0.93797,76.925205 m -54.277781,56.37741 52.957951,-56.9241 m -52.957951,56.9241 2.804488,-77.69834 M 132.88122,81.188779 79.923267,138.11288 m 52.957953,-56.924101 -2.80449,77.698341 m -53.504641,58.24393 52.184821,-58.79062 m -52.184821,58.79062 4.671005,-78.47148 M 133.42791,79.868952 81.243094,138.65957 m 52.184816,-58.790618 -4.671,78.471478 m -52.731515,60.11045 51.411675,-60.65714 m -51.411675,60.65714 6.537534,-79.24462 M 133.9746,78.549126 82.562929,139.20626 M 133.9746,78.549126 127.43707,157.79374 m -51.958365,61.97697 50.638535,-62.52366 m -50.638535,62.52366 8.40405,-80.01776 M 134.52129,77.229289 83.882755,139.75295 m 50.638535,-62.523661 -8.40405,80.017761 m -51.185225,63.84349 49.865405,-64.39018 m -49.865405,64.39018 10.270566,-80.7909 M 135.06798,75.909463 85.202581,140.29964 M 135.06798,75.909463 124.79742,156.70036 m -50.412095,65.71 49.092275,-66.25669 M 74.385325,222.41036 86.522406,140.84633 M 135.61468,74.589636 86.522406,140.84633 M 135.61468,74.589636 123.4776,156.15367 M 73.838639,223.73018 122.15775,155.60697 M 73.838639,223.73018 87.842238,141.39302 M 136.16137,73.269809 87.842238,141.39302 M 136.16137,73.269809 122.15775,155.60697 M 73.291941,225.05003 120.83794,155.06029 M 73.291941,225.05003 89.162064,141.93971 M 136.70806,71.949983 89.162064,141.93971 M 136.70806,71.949983 120.83794,155.06029 M 72.745255,226.36984 119.51811,154.5136 M 72.745255,226.36984 90.48189,142.4864 M 137.25474,70.630157 90.48189,142.4864 M 137.25474,70.630157 119.51811,154.5136 M 72.198557,227.68969 118.19827,153.9669 M 72.198557,227.68969 91.801727,143.0331 M 137.80144,69.31033 91.801727,143.0331 M 137.80144,69.31033 118.19827,153.9669 m -46.546399,75.04261 45.226579,-75.5893 m -45.226579,75.5893 21.469681,-85.42972 M 138.34813,67.990495 93.121552,143.57979 M 138.34813,67.990495 116.87845,153.42021 M 71.105181,230.32933 115.55862,152.87352 M 71.105181,230.32933 94.441378,144.12648 M 138.89482,66.670668 94.441378,144.12648 M 138.89482,66.670668 115.55862,152.87352 M 70.558491,231.64916 114.2388,152.32683 M 70.558491,231.64916 95.761204,144.67317 M 139.44151,65.35084 95.761204,144.67317 M 139.44151,65.35084 114.2388,152.32683 M 70.011801,232.96898 112.91898,151.78015 M 70.011801,232.96898 97.081028,145.21985 M 139.9882,64.031015 97.081028,145.21985 M 139.9882,64.031015 112.91898,151.78015 m -43.453869,82.50866 42.134019,-83.05536 m -42.134019,83.05536 28.93575,-88.52226 M 140.53489,62.711187 98.400861,145.76655 M 140.53489,62.711187 111.59913,151.23345 M 68.918411,235.60863 110.27932,150.68676 M 68.918411,235.60863 99.720689,146.31324 M 141.08158,61.391362 99.720689,146.31324 M 141.08158,61.391362 110.27932,150.68676 m -41.907589,86.2417 40.587739,-86.78839 m -40.587739,86.78839 32.668789,-90.06854 m 40.58775,-86.788386 -40.58775,86.788386 m 40.58775,-86.788386 -32.6688,90.068536 M 67.825027,238.2483 107.63965,149.59338 M 67.825027,238.2483 102.36035,147.40662 m 39.81461,-88.654922 -39.81461,88.654922 m 39.81461,-88.654922 -34.53531,90.841682 m -40.361303,89.97475 39.041483,-90.52144 m -39.041483,90.52144 36.401823,-91.61482 m 39.04148,-90.521438 -39.04148,90.521438 m 39.04148,-90.521438 -36.40182,91.614818"
         style="fill:url(#radialGradient1005);fill-opacity:1;stroke:url(#radialGradient1007);stroke-width:0.264583;stroke-linecap:butt;stroke-linejoin:miter;stroke-opacity:1"
         id="path1003" />
      <path
         d="M 197.38795,110.23166 105,148.5 m 0,0 -92.387953,38.26834 M 66.731651,56.112049 105,148.5 m 0,0 38.26834,92.38795 M 105,148.5 143.26834,240.88795 M 105,148.5 66.731651,56.112049 M 105,148.5 66.731651,56.112049 M 105,148.5 l 38.26834,92.38795 m -39.58817,-91.84126 39.04149,90.52144 M 103.68017,149.04669 67.278341,57.431875 M 106.31983,147.95331 67.278341,57.431875 m 39.041489,90.521435 36.40183,91.61482 m -40.36131,-89.97475 39.81461,88.65492 M 102.36035,149.59338 67.82503,58.751701 M 107.63965,147.40662 67.82503,58.751701 m 39.81462,88.654919 34.53531,90.84168 m -41.13445,-88.10822 40.58776,86.78839 M 101.04051,150.14008 68.371724,60.071532 M 108.95947,146.85992 68.371724,60.071532 m 40.587746,86.788388 32.6688,90.06855 m -41.907588,-86.2417 41.360898,84.92187 M 99.720682,150.68677 68.918417,61.391361 M 110.27931,146.31323 68.918417,61.391361 m 41.360893,84.921869 30.80227,89.29541 M 98.400867,151.23345 140.53489,234.28881 M 98.400867,151.23345 69.465111,62.711191 M 111.59914,145.76655 69.465111,62.711191 m 42.134029,83.055359 28.93575,88.52226 M 97.081017,151.78015 139.98819,232.96898 M 97.081017,151.78015 70.011801,64.031017 M 112.91896,145.21985 70.011801,64.031017 m 42.907159,81.188833 27.06923,87.74913 M 95.761202,152.32684 139.44151,231.64916 M 95.761202,152.32684 70.55849,65.350842 m 43.6803,79.322318 -43.6803,-79.322318 m 43.6803,79.322318 25.20272,86.976 m -45.00013,-78.77563 44.45343,77.4558 M 94.44138,152.87353 71.105179,66.670668 M 115.55862,144.12648 71.105179,66.670668 m 44.453441,77.455812 23.33619,86.20285 M 93.121551,153.42022 138.34812,229.0095 M 93.121551,153.42022 71.651868,67.990494 M 116.87844,143.57978 71.651868,67.990494 m 45.226572,75.589286 21.46968,85.42972 M 91.801719,153.96691 137.80144,227.68968 M 91.801719,153.96691 72.198558,69.31032 M 118.19827,143.0331 72.198558,69.31032 m 45.999712,73.72278 19.60317,84.65658 M 90.481887,154.5136 137.25474,226.36985 M 90.481887,154.5136 72.745256,70.630154 M 119.5181,142.4864 72.745256,70.630154 M 119.5181,142.4864 137.25474,226.36985 M 89.162058,155.06029 136.70806,225.05002 M 89.162058,155.06029 73.291945,71.949979 M 120.83794,141.93971 73.291945,71.949979 m 47.545995,69.989731 15.87012,83.11031 M 87.842239,155.60698 136.16137,223.73019 M 87.842239,155.60698 73.838631,73.269817 M 122.15776,141.39303 73.838631,73.269817 m 48.319129,68.123213 14.00361,82.33716 M 86.522398,156.15367 135.61467,222.41036 M 86.522398,156.15367 74.385321,74.589643 M 123.47759,140.84633 74.385321,74.589643 m 49.092269,66.256687 12.13708,81.56403 m -50.412092,-65.71 49.865412,64.39018 M 85.202578,156.70036 74.932011,75.909469 M 124.79742,140.29964 74.932011,75.909469 m 49.865409,64.390171 10.27057,80.7909 M 83.882757,157.24705 134.5213,219.77071 M 83.882757,157.24705 75.4787,77.229294 M 126.11724,139.75296 75.4787,77.229294 m 50.63854,62.523666 8.40406,80.01775 M 82.562928,157.79374 133.9746,218.45088 M 82.562928,157.79374 76.02539,78.549121 M 127.43707,139.20626 76.02539,78.549121 m 51.41168,60.657139 6.53753,79.24462 M 81.243089,158.34044 133.42791,217.13105 M 81.243089,158.34044 76.572086,79.868954 M 128.7569,138.65957 76.572086,79.868954 m 52.184814,58.790616 4.67101,78.47148 m -53.504643,-58.24393 52.957953,56.9241 M 79.923267,158.88712 77.118776,81.18878 m 52.957954,56.9241 -52.957954,-56.9241 m 52.957954,56.9241 2.80449,77.69834 M 78.603438,159.43381 132.33453,214.49139 M 78.603438,159.43381 77.665465,82.508605 M 131.39656,137.56619 77.665465,82.508605 m 53.731095,55.057585 0.93797,76.9252 M 77.283619,159.9805 131.78784,213.17157 M 77.283619,159.9805 78.21216,83.828436 M 132.71638,137.01949 78.21216,83.828436 m 54.50422,53.191054 -0.92854,76.15208 m -55.82406,-52.64438 55.27737,51.32455 M 75.96378,160.52719 78.758849,85.148262 M 134.03621,136.47281 78.758849,85.148262 m 55.277361,51.324548 -2.79506,75.37893 M 74.643958,161.07388 130.69446,210.53191 M 74.643958,161.07388 79.305538,86.468088 M 135.35604,135.92612 79.305538,86.468088 m 56.050502,49.458032 -4.66158,74.60579 M 73.324129,161.62058 130.14777,209.21209 M 73.324129,161.62058 79.852227,87.787913 M 136.67586,135.37942 79.852227,87.787913 m 56.823633,47.591507 -6.52809,73.83267 M 72.004297,162.16727 129.60107,207.89225 M 72.004297,162.16727 80.398925,89.107747 M 137.99569,134.83274 80.398925,89.107747 m 57.596765,45.724993 -8.39462,73.05951 M 70.684469,162.71396 129.05438,206.57243 M 70.684469,162.71396 80.945615,90.427573 M 139.31553,134.28604 80.945615,90.427573 m 58.369915,43.858467 -10.26115,72.28639 M 69.364647,163.26065 128.50769,205.2526 M 69.364647,163.26065 81.492304,91.747399 M 140.63535,133.73936 81.492304,91.747399 M 140.63535,133.73936 128.50769,205.2526 M 68.044817,163.80734 127.961,203.93277 M 68.044817,163.80734 82.038993,93.067225 M 141.95518,133.19267 82.038993,93.067225 M 141.95518,133.19267 127.961,203.93277 M 66.724988,164.35403 127.41431,202.61295 M 66.724988,164.35403 82.585683,94.387051 M 143.27501,132.64597 82.585683,94.387051 m 60.689327,38.258919 -15.8607,69.96698 m -62.009141,-37.71223 61.462451,36.3924 M 65.405169,164.90072 83.13237,95.706888 M 144.59483,132.09929 83.13237,95.706888 m 61.46246,36.392402 -17.72721,69.19383 M 64.085327,165.44741 126.32093,199.97329 M 64.085327,165.44741 83.679059,97.026714 M 145.91466,131.5526 83.679059,97.026714 M 145.91466,131.5526 126.32093,199.97329 M 62.765508,165.9941 125.77424,198.65346 M 62.765508,165.9941 84.225756,98.346548 M 147.23449,131.0059 84.225756,98.346548 M 147.23449,131.0059 125.77424,198.65346 M 61.445667,166.54079 125.22755,197.33363 M 61.445667,166.54079 84.772445,99.666373 M 148.55432,130.45921 84.772445,99.666373 m 63.781875,30.792837 -23.32677,66.87442 M 60.125848,167.08748 124.68086,196.0138 M 60.125848,167.08748 85.319135,100.9862 M 149.87415,129.91252 85.319135,100.9862 m 64.555015,28.92632 -25.19329,66.10128 M 58.806019,167.63417 124.13417,194.69398 M 58.806019,167.63417 85.865824,102.30602 m 65.328156,27.05981 -65.328156,-27.05981 m 65.328156,27.05981 -27.05981,65.32815 M 57.486197,168.18086 123.58748,193.37415 M 57.486197,168.18086 86.412514,103.62585 M 152.5138,128.81914 86.412514,103.62585 m 66.101286,25.19329 -28.92632,64.55501 m -67.421112,-24.6466 66.874422,23.32679 M 56.166368,168.72755 86.959204,104.94568 m 66.874426,23.32677 -66.874426,-23.32677 m 66.874426,23.32677 -30.79284,63.78189 M 54.846549,169.27424 122.4941,190.73449 M 54.846549,169.27424 87.505897,106.26551 m 67.647553,21.46025 -67.647553,-21.46025 m 67.647553,21.46025 -32.65935,63.00873 M 53.526707,169.82094 121.94741,189.41467 M 53.526707,169.82094 88.05259,107.58534 m 68.42069,19.59373 -68.42069,-19.59373 m 68.42069,19.59373 -34.52587,62.2356 m -69.740522,-19.04705 69.193822,17.7272 m -69.193822,-17.7272 36.392396,-61.46245 m 69.193826,17.7272 -69.193826,-17.7272 m 69.193826,17.7272 -36.3924,61.46245 m -70.51366,-17.18051 69.96697,15.8607 m -69.96697,-15.8607 38.258924,-60.68932 m 69.966976,15.86069 -69.966976,-15.86069 m 69.966976,15.86069 -38.25893,60.68933 m -71.286793,-15.314 70.740103,13.99417 M 49.567227,171.46101 89.692663,111.54482 M 160.43277,125.539 89.692663,111.54482 M 160.43277,125.539 120.30733,185.45518 M 48.247398,172.0077 119.76064,184.13535 M 48.247398,172.0077 90.239352,112.86464 M 161.7526,124.99231 90.239352,112.86464 m 71.513248,12.12767 -41.99196,59.14304 M 46.927569,172.55439 119.21395,182.81553 M 46.927569,172.55439 90.786042,114.18447 m 72.286388,10.26115 -72.286388,-10.26115 m 72.286388,10.26115 -43.85848,58.36991 m -73.606203,-9.71445 73.059523,8.39463 M 45.607747,173.10108 91.332731,115.5043 m 73.059519,8.39463 -73.059519,-8.39463 m 73.059519,8.39463 -45.72498,57.59678 m -74.379361,-7.84794 73.832671,6.5281 m -73.832671,-6.5281 47.591512,-56.82363 m 73.832659,6.5281 -73.832659,-6.5281 m 73.832659,6.5281 -47.5915,56.82363 m -75.152493,-5.98141 74.605793,4.66159 m -74.605793,-4.66159 49.458024,-56.0505 m 74.605799,4.66158 -74.605799,-4.66158 m 74.605799,4.66158 -49.45803,56.05051 m -75.925622,-4.1149 75.378922,2.79505 M 41.648258,174.74115 92.9728,119.46379 m 75.37894,2.79506 -75.37894,-2.79506 m 75.37894,2.79506 -51.32456,55.27735 m -76.698742,-2.24836 76.152072,0.92855 m -76.152072,-0.92855 53.191057,-54.50422 m 76.152075,0.92854 -76.152075,-0.92854 m 76.152075,0.92854 -53.19106,54.50423 m -77.471913,-0.38186 76.925213,-0.93797 m -76.925213,0.93797 55.057587,-53.73109 m 76.925206,-0.93797 -76.925206,0.93797 m 76.925206,-0.93797 -55.05758,53.73109 m -78.245033,1.48466 77.698343,-2.80449 m -77.698343,2.80449 56.924096,-52.95795 m 77.698347,-2.80449 -77.698347,2.80449 m 77.698347,-2.80449 -56.9241,52.95795 m -79.018172,3.35118 78.471492,-4.671 m -78.471492,4.671 58.790615,-52.18481 m 78.471487,-4.67101 -78.471487,4.67101 m 78.471487,-4.67101 -58.79061,52.18482 m -79.791323,5.21769 79.244623,-6.53753 m -79.244623,6.53753 60.657142,-51.41167 m 79.244611,-6.53753 -79.244611,6.53753 m 79.244611,-6.53753 -60.65713,51.41167 m -80.564452,7.08423 80.017752,-8.40406 m -80.017752,8.40406 62.523661,-50.63854 m 80.017761,-8.40406 -80.017761,8.40406 m 80.017761,-8.40406 -62.52367,50.63854 m -81.337581,8.95075 80.790901,-10.27057 m -80.790901,10.27057 64.39018,-49.86541 m 80.790891,-10.27057 -80.790891,10.27057 m 80.790891,-10.27057 -64.39017,49.86541 M 31.089637,179.11467 112.65367,166.9776 m -81.564033,12.13707 66.256691,-49.09226 m 81.564042,-12.13708 -81.564042,12.13708 m 81.564042,-12.13708 -66.2567,49.09227 m -82.883852,12.68376 82.337152,-14.00361 m -82.337152,14.00361 68.123204,-48.31912 m 82.337168,-14.0036 -82.337168,14.0036 m 82.337168,-14.0036 -68.12322,48.31911 m -83.657001,14.55031 83.110321,-15.87012 m -83.110321,15.87012 69.989742,-47.546 m 83.110309,-15.87011 -83.110309,15.87011 m 83.110309,-15.87011 -69.98973,47.54599 m -84.430133,16.4168 83.883433,-17.73663 m -83.883433,17.73663 71.856244,-46.77285 m 83.883439,-17.73664 -83.883439,17.73664 m 83.883439,-17.73664 -71.85625,46.77286 M 25.810308,181.30145 110.4669,161.69827 m -84.656592,19.60318 73.722784,-45.99972 m 84.656578,-19.60316 -84.656578,19.60316 m 84.656578,-19.60316 -73.72277,45.9997 m -85.976411,20.14986 85.429731,-21.46968 m -85.429731,21.46968 75.589291,-45.22657 m 85.42972,-21.46969 -85.42972,21.46969 m 85.42972,-21.46969 -75.58928,45.22658 m -86.749553,22.01637 86.202853,-23.3362 m -86.202853,23.3362 77.455803,-44.45344 m 86.20286,-23.3362 -86.20286,23.3362 m 86.20286,-23.3362 -77.45581,44.45344 M 21.850838,182.94151 108.82684,157.7388 m -86.976002,25.20271 79.322322,-43.6803 m 86.976,-25.20272 -86.976,25.20272 m 86.976,-25.20272 -79.32232,43.68031 M 20.531017,183.4882 108.28015,156.41898 M 20.531017,183.4882 101.71986,140.58103 m 87.74912,-27.06923 -87.74912,27.06923 m 87.74912,-27.06923 -81.18883,42.90718 m -89.068962,27.61591 88.522262,-28.93576 m -88.522262,28.93576 83.055352,-42.13403 m 88.52227,-28.93575 -88.52227,28.93575 m 88.52227,-28.93575 -83.05536,42.13402 m -89.842091,29.48244 89.295411,-30.80225 m -89.295411,30.80225 84.921871,-41.36088 m 89.29541,-30.80227 -89.29541,30.80227 m 89.29541,-30.80227 -84.92187,41.3609 m -90.615233,31.34895 90.068523,-32.6688 m -90.068523,32.6688 86.788393,-40.58776 m 90.06853,-32.66878 -90.06853,32.66878 m 90.06853,-32.66878 -86.7884,40.58774 m -91.388369,33.21549 90.841689,-34.53531 m -90.841689,34.53531 88.654929,-39.81461 m 90.84168,-34.53532 -90.84168,34.53532 m 90.84168,-34.53532 -88.65492,39.81462 m -92.161511,35.08201 91.614821,-36.40183 m -91.614821,36.40183 90.521441,-39.04149 m 91.61481,-36.40183 -91.61481,36.40183 m 91.61481,-36.40183 -90.52143,39.04149"
         style="fill:url(#radialGradient1011);fill-opacity:1;stroke:url(#radialGradient1013);stroke-width:0.264583;stroke-linecap:butt;stroke-linejoin:miter;stroke-opacity:1"
         id="path1009" />
    </g>
  </g>
</svg>
