<?xml version="1.0" encoding="UTF-8" standalone="no"?>
<svg
   xmlns:dc="http://purl.org/dc/elements/1.1/"
   xmlns:cc="http://creativecommons.org/ns#"
   xmlns:rdf="http://www.w3.org/1999/02/22-rdf-syntax-ns#"
   xmlns:svg="http://www.w3.org/2000/svg"
   xmlns="http://www.w3.org/2000/svg"
   xmlns:xlink="http://www.w3.org/1999/xlink"
   xmlns:sodipodi="http://sodipodi.sourceforge.net/DTD/sodipodi-0.dtd"
   xmlns:inkscape="http://www.inkscape.org/namespaces/inkscape"
   sodipodi:docname="cross.svg"
   inkscape:version="1.0 (4035a4f, 2020-05-01)"
   width="300mm"
   height="300mm"
   viewBox="0 0 300 300"
   version="1.1"
   id="svg8">
  <defs
     id="defs2">
    <linearGradient
       inkscape:collect="always"
       id="linearGradient961">
      <stop
         style="stop-color:#00fe1d;stop-opacity:1"
         offset="0"
         id="stop957" />
      <stop
         id="stop965"
         offset="0.229128"
         style="stop-color:#c0000b;stop-opacity:0.98823529" />
      <stop
         style="stop-color:#f7f241;stop-opacity:0.91902834"
         offset="1"
         id="stop959" />
    </linearGradient>
    <radialGradient
       inkscape:collect="always"
       xlink:href="#linearGradient961"
       id="radialGradient963"
       cx="118.4051"
       cy="148.08492"
       fx="118.4051"
       fy="148.08492"
       r="150"
       gradientUnits="userSpaceOnUse" />
  </defs>
  <sodipodi:namedview
     fit-margin-bottom="0"
     fit-margin-right="0"
     fit-margin-left="0"
     fit-margin-top="0"
     id="base"
     pagecolor="#ffffff"
     bordercolor="#666666"
     borderopacity="1.0"
     inkscape:pageopacity="0.0"
     inkscape:pageshadow="2"
     inkscape:zoom="0.45269292"
     inkscape:cx="529.06373"
     inkscape:cy="566.92913"
     inkscape:document-units="mm"
     inkscape:current-layer="layer1"
     inkscape:document-rotation="0"
     showgrid="false"
     inkscape:window-width="1252"
     inkscape:window-height="747"
     inkscape:window-x="0"
     inkscape:window-y="25"
     inkscape:window-maximized="0" />
  <metadata
     id="metadata5">
    <rdf:RDF>
      <cc:Work
         rdf:about="">
        <dc:format>image/svg+xml</dc:format>
        <dc:type
           rdf:resource="http://purl.org/dc/dcmitype/StillImage" />
        <dc:title></dc:title>
      </cc:Work>
    </rdf:RDF>
  </metadata>
  <g
     transform="translate(31.594905,1.9150949)"
     inkscape:label="Layer 1"
     inkscape:groupmode="layer"
     id="layer1">
    <path
       id="path952"
       style="fill:none;fill-opacity:1;stroke:url(#radialGradient963);stroke-width:0.264583;stroke-linecap:butt;stroke-linejoin:miter;stroke-opacity:1"
       d="M 118.4051,-1.9150949 V 298.08491 m -150.000005,-150 H 268.4051 m -150,0 h 150 m -150,0 H -31.594905 m 150.000005,0 H -31.594905 m 150.000005,0 h 150 m -150,1.66666 148.33333,-1.66666 m -148.33333,1.66666 -148.333338,-1.66666 m 148.333338,-1.66667 -148.333338,1.66667 m 148.333338,-1.66667 148.33333,1.66667 m -148.33333,3.33333 146.66666,-3.33333 m -146.66666,3.33333 -146.666672,-3.33333 m 146.666672,-3.33334 -146.666672,3.33334 m 146.666672,-3.33334 146.66666,3.33334 m -146.66666,5 145,-5 m -145,5 -145.000005,-5 m 145.000005,-5 -145.000005,5 m 145.000005,-5 145,5 m -145,6.66666 143.33333,-6.66666 m -143.33333,6.66666 -143.333338,-6.66666 m 143.333338,-6.66667 -143.333338,6.66667 m 143.333338,-6.66667 143.33333,6.66667 m -143.33333,8.33333 141.66666,-8.33333 m -141.66666,8.33333 -141.666672,-8.33333 m 141.666672,-8.33334 -141.666672,8.33334 m 141.666672,-8.33334 141.66666,8.33334 m -141.66666,10 140,-10 m -140,10 -140.000005,-10 m 140.000005,-10 -140.000005,10 m 140.000005,-10 140,10 m -140,11.66666 138.33333,-11.66666 M 118.4051,159.75157 -19.928238,148.08491 M 118.4051,136.41824 -19.928238,148.08491 M 118.4051,136.41824 256.73843,148.08491 M 118.4051,161.41824 255.07176,148.08491 M 118.4051,161.41824 -18.261572,148.08491 M 118.4051,134.75157 -18.261572,148.08491 M 118.4051,134.75157 255.07176,148.08491 m -136.66666,15 135,-15 m -135,15 -135.000005,-15 m 135.000005,-15 -135.000005,15 m 135.000005,-15 135,15 m -135,16.66666 133.33333,-16.66666 M 118.4051,164.75157 -14.928238,148.08491 M 118.4051,131.41824 -14.928238,148.08491 M 118.4051,131.41824 251.73843,148.08491 M 118.4051,166.41824 250.07176,148.08491 M 118.4051,166.41824 -13.261572,148.08491 M 118.4051,129.75157 -13.261572,148.08491 M 118.4051,129.75157 250.07176,148.08491 m -131.66666,20 130,-20 m -130,20 -130.000005,-20 m 130.000005,-20 -130.000005,20 m 130.000005,-20 130,20 m -130,21.66666 128.33333,-21.66666 M 118.4051,169.75157 -9.9282383,148.08491 M 118.4051,126.41824 -9.9282383,148.08491 M 118.4051,126.41824 246.73843,148.08491 M 118.4051,171.41824 245.07176,148.08491 M 118.4051,171.41824 -8.2615716,148.08491 M 118.4051,124.75157 -8.2615716,148.08491 M 118.4051,124.75157 245.07176,148.08491 m -126.66666,25 125,-25 m -125,25 -125.0000049,-25 m 125.0000049,-25 -125.0000049,25 m 125.0000049,-25 125,25 m -125,26.66666 123.33333,-26.66666 M 118.4051,174.75157 -4.9282383,148.08491 M 118.4051,121.41824 -4.9282383,148.08491 M 118.4051,121.41824 241.73843,148.08491 M 118.4051,176.41824 240.07176,148.08491 M 118.4051,176.41824 -3.2615716,148.08491 M 118.4051,119.75157 -3.2615716,148.08491 M 118.4051,119.75157 240.07176,148.08491 m -121.66666,30 120,-30 m -120,30 -120.0000049,-30 m 120.0000049,-30 -120.0000049,30 m 120.0000049,-30 120,30 m -120,31.66666 118.33333,-31.66666 M 118.4051,179.75157 0.07176175,148.08491 M 118.4051,116.41824 0.07176175,148.08491 M 118.4051,116.41824 236.73843,148.08491 M 118.4051,181.41824 235.07176,148.08491 M 118.4051,181.41824 1.7384284,148.08491 M 118.4051,114.75157 1.7384284,148.08491 M 118.4051,114.75157 235.07176,148.08491 m -116.66666,35 115,-35 m -115,35 -115.0000049,-35 m 115.0000049,-35 -115.0000049,35 m 115.0000049,-35 115,35 m -115,36.66666 113.33333,-36.66666 M 118.4051,184.75157 5.0717617,148.08491 M 118.4051,111.41824 5.0717617,148.08491 M 118.4051,111.41824 231.73843,148.08491 M 118.4051,186.41824 230.07176,148.08491 M 118.4051,186.41824 6.7384284,148.08491 M 118.4051,109.75157 6.7384284,148.08491 M 118.4051,109.75157 230.07176,148.08491 m -111.66666,40 110,-40 m -110,40 -110.0000049,-40 m 110.0000049,-40 -110.0000049,40 m 110.0000049,-40 110,40 m -110,41.66666 108.33333,-41.66666 M 118.4051,189.75157 10.071762,148.08491 M 118.4051,106.41824 10.071762,148.08491 M 118.4051,106.41824 226.73843,148.08491 M 118.4051,191.41824 225.07176,148.08491 M 118.4051,191.41824 11.738428,148.08491 M 118.4051,104.75157 11.738428,148.08491 M 118.4051,104.75157 225.07176,148.08491 m -106.66666,45 105,-45 m -105,45 -105.000005,-45 m 105.000005,-45 -105.000005,45 m 105.000005,-45 105,45 m -105,46.66666 103.33333,-46.66666 M 118.4051,194.75157 15.071762,148.08491 M 118.4051,101.41824 15.071762,148.08491 M 118.4051,101.41824 221.73843,148.08491 M 118.4051,196.41824 220.07176,148.08491 M 118.4051,196.41824 16.738428,148.08491 M 118.4051,99.751572 16.738428,148.08491 M 118.4051,99.751572 220.07176,148.08491 m -101.66666,50 100,-50 m -100,50 -100.000005,-50 M 118.4051,98.084905 18.405095,148.08491 M 118.4051,98.084905 l 100,50.000005 m -100,51.66666 98.33333,-51.66666 M 118.4051,199.75157 20.071762,148.08491 M 118.4051,96.418238 20.071762,148.08491 M 118.4051,96.418238 216.73843,148.08491 m -98.33333,53.33333 96.66666,-53.33333 M 118.4051,201.41824 21.738428,148.08491 M 118.4051,94.751572 21.738428,148.08491 M 118.4051,94.751572 215.07176,148.08491 m -96.66666,55 95,-55 m -95,55 -95.000005,-55 M 118.4051,93.084905 23.405095,148.08491 m 95.000005,-55.000005 95,55.000005 m -95,56.66666 93.33333,-56.66666 M 118.4051,204.75157 25.071762,148.08491 M 118.4051,91.418238 25.071762,148.08491 M 118.4051,91.418238 211.73843,148.08491 m -93.33333,58.33333 91.66666,-58.33333 M 118.4051,206.41824 26.738428,148.08491 M 118.4051,89.751572 26.738428,148.08491 M 118.4051,89.751572 210.07176,148.08491 m -91.66666,60 90,-60 m -90,60 -90.000005,-60 M 118.4051,88.084905 28.405095,148.08491 m 90.000005,-60.000005 90,60.000005 m -90,61.66666 88.33333,-61.66666 M 118.4051,209.75157 30.071762,148.08491 M 118.4051,86.418238 30.071762,148.08491 M 118.4051,86.418238 206.73843,148.08491 m -88.33333,63.33333 86.66666,-63.33333 M 118.4051,211.41824 31.738428,148.08491 M 118.4051,84.751572 31.738428,148.08491 M 118.4051,84.751572 205.07176,148.08491 m -86.66666,65 85,-65 m -85,65 -85.000005,-65 M 118.4051,83.084905 33.405095,148.08491 m 85.000005,-65.000005 85,65.000005 m -85,66.66666 83.33333,-66.66666 M 118.4051,214.75157 35.071762,148.08491 M 118.4051,81.418238 35.071762,148.08491 M 118.4051,81.418238 201.73843,148.08491 m -83.33333,68.33333 81.66666,-68.33333 M 118.4051,216.41824 36.738428,148.08491 M 118.4051,79.751572 36.738428,148.08491 M 118.4051,79.751572 200.07176,148.08491 m -81.66666,70 80,-70 m -80,70 -80.000005,-70 M 118.4051,78.084905 38.405095,148.08491 m 80.000005,-70.000005 80,70.000005 m -80,71.66666 78.33333,-71.66666 M 118.4051,219.75157 40.071762,148.08491 M 118.4051,76.418238 40.071762,148.08491 M 118.4051,76.418238 196.73843,148.08491 m -78.33333,73.33333 76.66666,-73.33333 M 118.4051,221.41824 41.738428,148.08491 M 118.4051,74.751572 41.738428,148.08491 M 118.4051,74.751572 195.07176,148.08491 m -76.66666,75 75,-75 m -75,75 -75.000005,-75 M 118.4051,73.084905 43.405095,148.08491 m 75.000005,-75.000005 75,75.000005 m -75,76.66666 73.33333,-76.66666 M 118.4051,224.75157 45.071762,148.08491 M 118.4051,71.418238 45.071762,148.08491 M 118.4051,71.418238 191.73843,148.08491 m -73.33333,78.33333 71.66666,-78.33333 M 118.4051,226.41824 46.738428,148.08491 M 118.4051,69.751572 46.738428,148.08491 M 118.4051,69.751572 190.07176,148.08491 m -71.66666,80 70,-80 m -70,80 -70.000005,-80 M 118.4051,68.084905 48.405095,148.08491 m 70.000005,-80.000005 70,80.000005 m -70,81.66666 68.33333,-81.66666 M 118.4051,229.75157 50.071762,148.08491 M 118.4051,66.418238 50.071762,148.08491 M 118.4051,66.418238 186.73843,148.08491 m -68.33333,83.33333 66.66666,-83.33333 M 118.4051,231.41824 51.738428,148.08491 M 118.4051,64.751572 51.738428,148.08491 M 118.4051,64.751572 185.07176,148.08491 m -66.66666,85 65,-85 m -65,85 -65.000005,-85 M 118.4051,63.084905 53.405095,148.08491 m 65.000005,-85.000005 65,85.000005 m -65,86.66666 63.33333,-86.66666 M 118.4051,234.75157 55.071762,148.08491 M 118.4051,61.418238 55.071762,148.08491 M 118.4051,61.418238 181.73843,148.08491 m -63.33333,88.33333 61.66666,-88.33333 M 118.4051,236.41824 56.738428,148.08491 M 118.4051,59.751572 56.738428,148.08491 M 118.4051,59.751572 180.07176,148.08491 m -61.66666,90 60,-90 m -60,90 -60.000005,-90 M 118.4051,58.084905 58.405095,148.08491 m 60.000005,-90.000005 60,90.000005 m -60,91.66666 58.33333,-91.66666 M 118.4051,239.75157 60.071762,148.08491 M 118.4051,56.418238 60.071762,148.08491 M 118.4051,56.418238 176.73843,148.08491 m -58.33333,93.33333 56.66666,-93.33333 M 118.4051,241.41824 61.738428,148.08491 M 118.4051,54.751572 61.738428,148.08491 M 118.4051,54.751572 175.07176,148.08491 m -56.66666,95 55,-95 m -55,95 -55.000005,-95 M 118.4051,53.084905 63.405095,148.08491 m 55.000005,-95.000005 55,95.000005 m -55,96.66666 53.33333,-96.66666 M 118.4051,244.75157 65.071762,148.08491 M 118.4051,51.418238 65.071762,148.08491 M 118.4051,51.418238 171.73843,148.08491 m -53.33333,98.33333 51.66666,-98.33333 M 118.4051,246.41824 66.738428,148.08491 M 118.4051,49.751572 66.738428,148.08491 M 118.4051,49.751572 170.07176,148.08491 m -51.66666,100 50,-100 m -50,100 -50.000005,-100 M 118.4051,48.084905 68.405095,148.08491 M 118.4051,48.084905 l 50,100.000005 m -50,101.66666 48.33333,-101.66666 M 118.4051,249.75157 70.071762,148.08491 M 118.4051,46.418238 70.071762,148.08491 M 118.4051,46.418238 166.73843,148.08491 M 118.4051,251.41824 165.07176,148.08491 M 118.4051,251.41824 71.738428,148.08491 M 118.4051,44.751572 71.738428,148.08491 M 118.4051,44.751572 165.07176,148.08491 m -46.66666,105 45,-105 m -45,105 -45.000005,-105 M 118.4051,43.084905 73.405095,148.08491 M 118.4051,43.084905 l 45,105.000005 m -45,106.66666 43.33333,-106.66666 M 118.4051,254.75157 75.071762,148.08491 M 118.4051,41.418238 75.071762,148.08491 M 118.4051,41.418238 161.73843,148.08491 M 118.4051,256.41824 160.07176,148.08491 M 118.4051,256.41824 76.738428,148.08491 M 118.4051,39.751572 76.738428,148.08491 M 118.4051,39.751572 160.07176,148.08491 m -41.66666,110 40,-110 m -40,110 -40.000005,-110 M 118.4051,38.084905 78.405095,148.08491 M 118.4051,38.084905 l 40,110.000005 m -40,111.66666 38.33333,-111.66666 M 118.4051,259.75157 80.071762,148.08491 M 118.4051,36.418238 80.071762,148.08491 M 118.4051,36.418238 156.73843,148.08491 M 118.4051,261.41824 155.07176,148.08491 M 118.4051,261.41824 81.738428,148.08491 M 118.4051,34.751572 81.738428,148.08491 M 118.4051,34.751572 155.07176,148.08491 m -36.66666,115 35,-115 m -35,115 -35.000005,-115 M 118.4051,33.084905 83.405095,148.08491 M 118.4051,33.084905 l 35,115.000005 m -35,116.66666 33.33333,-116.66666 M 118.4051,264.75157 85.071762,148.08491 M 118.4051,31.418238 85.071762,148.08491 M 118.4051,31.418238 151.73843,148.08491 M 118.4051,266.41824 150.07176,148.08491 M 118.4051,266.41824 86.738428,148.08491 M 118.4051,29.751572 86.738428,148.08491 M 118.4051,29.751572 150.07176,148.08491 m -31.66666,120 30,-120 m -30,120 -30.000005,-120 M 118.4051,28.084905 88.405095,148.08491 M 118.4051,28.084905 l 30,120.000005 m -30,121.66666 28.33333,-121.66666 M 118.4051,269.75157 90.071762,148.08491 M 118.4051,26.418238 90.071762,148.08491 M 118.4051,26.418238 146.73843,148.08491 M 118.4051,271.41824 145.07176,148.08491 M 118.4051,271.41824 91.738428,148.08491 M 118.4051,24.751572 91.738428,148.08491 M 118.4051,24.751572 145.07176,148.08491 m -26.66666,125 25,-125 m -25,125 -25.000005,-125 M 118.4051,23.084905 93.405095,148.08491 M 118.4051,23.084905 l 25,125.000005 m -25,126.66666 23.33333,-126.66666 M 118.4051,274.75157 95.071762,148.08491 M 118.4051,21.418238 95.071762,148.08491 M 118.4051,21.418238 141.73843,148.08491 M 118.4051,276.41824 140.07176,148.08491 M 118.4051,276.41824 96.738428,148.08491 M 118.4051,19.751572 96.738428,148.08491 M 118.4051,19.751572 140.07176,148.08491 m -21.66666,130 20,-130 m -20,130 -20.000005,-130 M 118.4051,18.084905 98.405095,148.08491 M 118.4051,18.084905 l 20,130.000005 m -20,131.66666 18.33333,-131.66666 M 118.4051,279.75157 100.07176,148.08491 M 118.4051,16.418238 100.07176,148.08491 M 118.4051,16.418238 136.73843,148.08491 M 118.4051,281.41824 135.07176,148.08491 M 118.4051,281.41824 101.73843,148.08491 M 118.4051,14.751572 101.73843,148.08491 M 118.4051,14.751572 135.07176,148.08491 m -16.66666,135 15,-135 m -15,135 -15,-135 m 15,-135.000005 -15,135.000005 m 15,-135.000005 15,135.000005 m -15,136.66666 13.33333,-136.66666 M 118.4051,284.75157 105.07176,148.08491 M 118.4051,11.418238 105.07176,148.08491 M 118.4051,11.418238 131.73843,148.08491 M 118.4051,286.41824 130.07176,148.08491 M 118.4051,286.41824 106.73843,148.08491 M 118.4051,9.7515718 106.73843,148.08491 M 118.4051,9.7515718 130.07176,148.08491 m -11.66666,140 10,-140 m -10,140 -10,-140 m 10,-140.0000049 -10,140.0000049 m 10,-140.0000049 10,140.0000049 m -10,141.66666 8.33333,-141.66666 M 118.4051,289.75157 110.07176,148.08491 M 118.4051,6.4182385 110.07176,148.08491 M 118.4051,6.4182385 126.73843,148.08491 m -8.33333,143.33333 6.66666,-143.33333 M 118.4051,291.41824 111.73843,148.08491 M 118.4051,4.7515718 111.73843,148.08491 M 118.4051,4.7515718 125.07176,148.08491 m -6.66666,145 5,-145 m -5,145 -5,-145 m 5,-145.0000049 -5,145.0000049 m 5,-145.0000049 5,145.0000049 m -5,146.66666 3.33333,-146.66666 M 118.4051,294.75157 115.07176,148.08491 M 118.4051,1.4182385 115.07176,148.08491 M 118.4051,1.4182385 121.73843,148.08491 m -3.33333,148.33333 1.66666,-148.33333 M 118.4051,296.41824 116.73843,148.08491 M 118.4051,-0.24842821 116.73843,148.08491 M 118.4051,-0.24842821 120.07176,148.08491" />
  </g>
</svg>
