<?xml version="1.0" encoding="UTF-8" standalone="no"?>
<svg
   xmlns:dc="http://purl.org/dc/elements/1.1/"
   xmlns:cc="http://creativecommons.org/ns#"
   xmlns:rdf="http://www.w3.org/1999/02/22-rdf-syntax-ns#"
   xmlns:svg="http://www.w3.org/2000/svg"
   xmlns="http://www.w3.org/2000/svg"
   xmlns:xlink="http://www.w3.org/1999/xlink"
   xmlns:sodipodi="http://sodipodi.sourceforge.net/DTD/sodipodi-0.dtd"
   xmlns:inkscape="http://www.inkscape.org/namespaces/inkscape"
   sodipodi:docname="Hexagon.svg"
   id="svg8"
   version="1.1"
   viewBox="0 0 599.90125 600.46503"
   height="600.46503mm"
   width="599.90125mm"
   inkscape:version="1.0.1 (0767f8302a, 2020-10-17)">
  <defs
     id="defs2">
    <linearGradient
       inkscape:collect="always"
       id="linearGradient2838">
      <stop
         style="stop-color:#00ff00;stop-opacity:1"
         offset="0"
         id="stop2834" />
      <stop
         style="stop-color:#0000ff;stop-opacity:1"
         offset="0.5"
         id="stop2842" />
      <stop
         style="stop-color:#ff0000;stop-opacity:1"
         offset="1"
         id="stop2836" />
    </linearGradient>
    <linearGradient
       inkscape:collect="always"
       id="linearGradient2828">
      <stop
         style="stop-color:#00ff00;stop-opacity:1"
         offset="0"
         id="stop2824" />
      <stop
         style="stop-color:#0000ff;stop-opacity:1"
         offset="0.5"
         id="stop2832" />
      <stop
         style="stop-color:#ff0000;stop-opacity:1"
         offset="1"
         id="stop2826" />
    </linearGradient>
    <linearGradient
       inkscape:collect="always"
       id="linearGradient2818">
      <stop
         style="stop-color:#ff0000;stop-opacity:1"
         offset="0"
         id="stop2814" />
      <stop
         style="stop-color:#0000b4;stop-opacity:1"
         offset="0.5"
         id="stop2822" />
      <stop
         style="stop-color:#00ff00;stop-opacity:1"
         offset="1"
         id="stop2816" />
    </linearGradient>
    <radialGradient
       inkscape:collect="always"
       xlink:href="#linearGradient2818"
       id="radialGradient2820"
       cx="-157.8266"
       cy="155.18254"
       fx="-157.8266"
       fy="155.18254"
       r="150.16618"
       gradientTransform="matrix(1,0,0,1.0003187,0,-0.04945967)"
       gradientUnits="userSpaceOnUse" />
    <radialGradient
       inkscape:collect="always"
       xlink:href="#linearGradient2828"
       id="radialGradient2830"
       cx="-8.0420017"
       cy="155.18254"
       fx="-8.0420017"
       fy="155.18254"
       r="150.16612"
       gradientTransform="matrix(1,0,0,1.0003192,0,-0.04952772)"
       gradientUnits="userSpaceOnUse" />
    <radialGradient
       inkscape:collect="always"
       xlink:href="#linearGradient2838"
       id="radialGradient2840"
       cx="-307.61096"
       cy="155.18254"
       fx="-307.61096"
       fy="155.18254"
       r="150.16618"
       gradientTransform="matrix(1,0,0,1.0003187,0,-0.04946034)"
       gradientUnits="userSpaceOnUse" />
    <radialGradient
       inkscape:collect="always"
       xlink:href="#linearGradient2818"
       id="radialGradient2857"
       gradientUnits="userSpaceOnUse"
       gradientTransform="matrix(1,0,0,1.0003187,0,-0.04945967)"
       cx="-157.8266"
       cy="155.18254"
       fx="-157.8266"
       fy="155.18254"
       r="150.16618" />
    <radialGradient
       inkscape:collect="always"
       xlink:href="#linearGradient2838"
       id="radialGradient2859"
       gradientUnits="userSpaceOnUse"
       gradientTransform="matrix(1,0,0,1.0003187,0,-0.04946034)"
       cx="-307.61096"
       cy="155.18254"
       fx="-307.61096"
       fy="155.18254"
       r="150.16618" />
    <radialGradient
       inkscape:collect="always"
       xlink:href="#linearGradient2828"
       id="radialGradient2861"
       gradientUnits="userSpaceOnUse"
       gradientTransform="matrix(1,0,0,1.0003192,0,-0.04952772)"
       cx="-8.0420017"
       cy="155.18254"
       fx="-8.0420017"
       fy="155.18254"
       r="150.16612" />
  </defs>
  <sodipodi:namedview
     id="base"
     pagecolor="#ffffff"
     bordercolor="#666666"
     borderopacity="1.0"
     inkscape:pageopacity="0.0"
     inkscape:pageshadow="2"
     inkscape:zoom="0.39788954"
     inkscape:cx="1133.6717"
     inkscape:cy="1134.737"
     inkscape:document-units="mm"
     inkscape:current-layer="layer1"
     inkscape:document-rotation="0"
     showgrid="false"
     inkscape:window-width="1528"
     inkscape:window-height="1136"
     inkscape:window-x="72"
     inkscape:window-y="27"
     inkscape:window-maximized="1"
     fit-margin-top="0"
     fit-margin-left="0"
     fit-margin-right="0"
     fit-margin-bottom="0" />
  <metadata
     id="metadata5">
    <rdf:RDF>
      <cc:Work
         rdf:about="">
        <dc:format>image/svg+xml</dc:format>
        <dc:type
           rdf:resource="http://purl.org/dc/dcmitype/StillImage" />
        <dc:title></dc:title>
      </cc:Work>
    </rdf:RDF>
  </metadata>
  <g
     inkscape:label="Layer 1"
     inkscape:groupmode="layer"
     id="layer1"
     transform="translate(457.77715,-4.9684911)">
    <g
       id="g2871">
      <g
         id="g2847">
        <path
           d="M -7.7787374,5.1007827 H -307.77874 l 150,299.9999973 L -7.7787374,5.1007827 m -300.0000026,0 150,299.9999973 M -7.7787374,5.1007827 H -307.77874 m 0,0 H -7.7787374 M -302.77874,15.100783 l 150,279.999997 M -17.778737,5.1007827 -302.77874,15.100783 m 5,-10.0000003 285.000003,10.0000003 m -285.000003,10 150,259.999997 M -27.778737,5.1007827 -297.77874,25.100783 m 10,-20.0000003 270.000003,20.0000003 m -275.000003,10 150,239.999997 M -37.778737,5.1007827 -292.77874,35.100783 m 15,-30.0000003 255.000003,30.0000003 m -265.000003,10 150,219.999997 M -47.778737,5.1007827 -287.77874,45.100783 m 20,-40.0000003 240.000003,40.0000003 m -255.000003,10 150,199.999997 M -57.778737,5.1007827 -282.77874,55.100783 m 25,-50.0000003 225.000003,50.0000003 m -245.000003,10 150,179.999997 M -67.778737,5.1007827 -277.77874,65.100783 m 30,-60.0000003 210.000003,60.0000003 m -235.000003,10 150,159.999997 M -77.778737,5.1007827 -272.77874,75.100783 m 35,-70.0000003 195.000003,70.0000003 m -225.000003,10 150,139.999997 M -87.778737,5.1007827 -267.77874,85.100783 m 40,-80.0000003 180.000003,80.0000003 m -215.000003,10 150,119.999997 M -97.778737,5.1007827 -262.77874,95.100783 m 45,-90.0000003 165.000003,90.0000003 m -205.000003,9.999997 150,100 m 0,-199.9999973 -150,99.9999973 m 50,-99.9999973 150.000003,99.9999973 m -195.000003,10 150,80 m -15,-189.9999973 -135,109.9999973 m 55,-109.9999973 135.000003,109.9999973 m -185.000003,10 150.000003,60 M -127.77874,5.1007827 l -120,119.9999973 m 60,-119.9999973 120.000003,119.9999973 m -175.000003,10 150.000003,40 M -137.77874,5.1007827 l -105,129.9999973 m 65,-129.9999973 105.000003,129.9999973 m -165.000003,10 150.000003,20 M -147.77874,5.1007827 l -90,139.9999973 m 70,-139.9999973 90.000003,139.9999973 m -155.000003,10 H -82.778737 M -157.77874,5.1007827 l -75,149.9999973 m 75,-149.9999973 75.000003,149.9999973 m -145.000003,10 150.000003,-20 M -167.77874,5.1007827 l -60,159.9999973 m 80,-159.9999973 60.000003,159.9999973 m -135.000003,10 150.000003,-40 M -177.77874,5.1007827 l -45,169.9999973 m 85,-169.9999973 45.000003,169.9999973 m -125.000003,10 150.000003,-60 M -187.77874,5.1007827 l -30,179.9999973 m 90,-179.9999973 30.000003,179.9999973 m -115.000003,10 150.000003,-80 M -197.77874,5.1007827 l -15,189.9999973 m 95,-189.9999973 15,189.9999973 m -105,10 150.000003,-100 M -207.77874,5.1007827 V 205.10078 m 100,-199.9999973 V 205.10078 m -95,10 L -52.778737,95.100783 M -217.77874,5.1007827 l 15,209.9999973 M -97.778737,5.1007827 -112.77874,215.10078 m -85,10 L -47.778737,85.100783 M -227.77874,5.1007827 l 30,219.9999973 M -87.778737,5.1007827 -117.77874,225.10078 m -75,10 L -42.778737,75.100783 M -237.77874,5.1007827 l 45,229.9999973 M -77.778737,5.1007827 -122.77874,235.10078 m -65,10 L -37.778737,65.100783 M -247.77874,5.1007827 l 60,239.9999973 M -67.778737,5.1007827 -127.77874,245.10078 m -55,10 L -32.778737,55.100783 M -257.77874,5.1007827 l 75,249.9999973 M -57.778737,5.1007827 -132.77874,255.10078 m -45,10 L -27.778737,45.100783 M -267.77874,5.1007827 l 90,259.9999973 M -47.778737,5.1007827 -137.77874,265.10078 m -35,10 L -22.778737,35.100783 M -277.77874,5.1007827 l 105,269.9999973 M -37.778737,5.1007827 -142.77874,275.10078 m -25,10 L -17.778737,25.100783 M -287.77874,5.1007827 l 120,279.9999973 M -27.778737,5.1007827 -147.77874,285.10078 m -15,10 L -12.778737,15.100783 M -297.77874,5.1007827 l 135,289.9999973 M -17.778737,5.1007827 -152.77874,295.10078"
           style="fill:none;fill-opacity:1;stroke:url(#radialGradient2820);stroke-width:0.264583;stroke-linecap:butt;stroke-linejoin:miter;stroke-opacity:1"
           id="path1972" />
        <path
           d="m -457.65882,305.2643 h 300 l -150,-299.999996 -150,299.999996 m 300,0 -150,-299.999996 m -150,299.999996 h 300 m 0,0 h -300 m 295,-10 -150,-279.999996 m -135,289.999996 285,-10 m -5,10 -285,-10 m 285,-10 -150,-259.999996 m -120,279.999996 270,-20 m -10,20 -270,-20 m 275,-10 -150,-239.999996 m -105,269.999996 255,-30 m -15,30 -255,-30 m 265,-10 -150,-219.999996 m -90,259.999996 240,-40 m -20,40 -240,-40 m 255,-10 -150,-199.999996 m -75,249.999996 225,-50 m -25,50 -225,-50 m 245,-10 -150,-179.999996 m -60,239.999996 210,-60 m -30,60 -210,-60 m 235,-10 -150,-159.999996 m -45,229.999996 195,-70 m -35,70 -195,-70 m 225,-10 -150,-139.999996 m -30,219.999996 180,-80 m -40,80 -180,-80 m 215,-10 -150,-120 m -15,210 165,-90 m -45,90 -165,-90 m 205,-10 -150,-100 m 0,200 150,-100 m -50,100 -150,-100 m 195,-10 -150,-80 m 15,190 135,-110 m -55,110 -135,-110 m 185,-10 -150,-60 m 30,180 120,-120 m -60,120 -120,-120 m 175,-10 -150,-40 m 45,170 105,-130 m -65,130 -105,-130 m 165,-10 -150,-20 m 60,160 90,-140 m -70,140 -90,-140 m 155,-10 h -150 m 75,150 75,-150 m -75,150 -75,-150 m 145,-10 -150,20 m 90,140 60,-160 m -80,160 -60,-160 m 135,-10 -150,40 m 105,130 45,-170 m -85,170 -45,-170 m 125,-10 -150,60 m 120,120 30,-180 m -90,180 -30,-180 m 115,-10 -150,80 m 135,110 15,-190 m -95,190 -15,-190 m 105,-10 -150,100 m 150,100 v -200 m -100,200 v -200 m 95,-10 -150,120 m 165,90 -15,-210 m -105,210 15,-210 m 85,-9.999996 -150,139.999996 m 180,80 -30,-219.999996 m -110,219.999996 30,-219.999996 m 75,-10 -150,159.999996 m 195,70 -45,-229.999996 m -115,229.999996 45,-229.999996 m 65,-10 -150,179.999996 m 210,60 -60,-239.999996 m -120,239.999996 60,-239.999996 m 55,-10 -150,199.999996 m 225,50 -75,-249.999996 m -125,249.999996 75,-249.999996 m 45,-10 -150,219.999996 m 240,40 -90,-259.999996 m -130,259.999996 90,-259.999996 m 35,-10 -150,239.999996 m 255,30 -105,-269.999996 m -135,269.999996 105,-269.999996 m 25,-10 -150,259.999996 m 270,20 -120,-279.999996 m -140,279.999996 120,-279.999996 m 15,-10 -150,279.999996 m 285,10 -135,-289.999996 m -145,289.999996 135,-289.999996"
           style="fill:none;fill-opacity:1;stroke:url(#radialGradient2840);stroke-width:0.264583;stroke-linecap:butt;stroke-linejoin:miter;stroke-opacity:1"
           id="path1977" />
        <path
           d="M -158.0898,305.2643 H 141.91007 L -8.0895743,5.264304 -158.0898,305.2643 m 299.99987,0 L -8.0895743,5.264304 M -158.0898,305.2643 h 299.99987 m 0,0 H -158.0898 m 294.99987,-10 L -13.089564,15.264304 M -148.08979,305.2643 l 284.99986,-10 m -5,10 -284.99987,-10 m 284.99987,-10 L -18.089561,25.264304 M -138.08973,305.2643 l 269.9998,-20 m -10,20 -269.99986,-20 m 274.99986,-10 L -23.089561,35.264304 M -128.08968,305.2643 l 254.99975,-30 m -15,30 -254.99983,-30 m 264.99983,-10 L -28.089549,45.264304 m -90.000071,259.999996 239.99969,-40 m -20,40 -239.9998,-40 m 254.9998,-10 L -33.089528,55.264304 m -75.000032,249.999996 224.99963,-50 m -24.999952,50 -224.999818,-50 m 244.99977,-10 L -38.089522,65.264304 m -59.999999,239.999996 209.999591,-60 m -29.999895,60 -209.999855,-60 m 234.99975,-10 L -43.089521,75.264304 m -44.999998,229.999996 194.999589,-70 m -34.999838,70 -194.999882,-70 m 224.99972,-10 L -48.089524,85.264304 m -29.999995,219.999996 179.999589,-80 m -39.999784,80 -179.999906,-80 m 214.999708,-10 -149.999604,-120 m -15.000001,210 164.999605,-90 m -44.999745,90 -164.999933,-90 m 204.999708,-10 -149.999634,-100 m 0,200 149.999634,-100 m -49.999772,100 -149.999906,-100 m 194.999705,-10 -149.999662,-80 m 14.999993,190 134.999669,-110 m -54.999751,110 -134.999924,-110 m 184.999705,-10 -149.999692,-60 m 29.999995,180 119.999697,-120 m -59.999787,120 -119.999909,-120 m 174.999723,-10 -149.999719,-40 m 44.999968,170 104.999751,-130 m -64.99979,130 -104.999931,-130 m 164.999751,-10 -149.999751,-20 m 59.999958,160 89.999793,-140 m -69.9998152,140 -89.9999358,-140 m 154.999778,-10 H -83.08952 m 74.9999457,150 74.9998333,-150 m -74.9998333,150 -74.9999457,-150 m 144.999806,-10 -149.999805,20 m 89.9999358,140 59.9998692,-160 m -79.999847,160 -59.999958,-160 m 134.999835,-10 -149.999835,40 m 104.999931,130 44.999904,-170 m -84.999865,170 -44.999968,-170 m 124.99986,-10 -149.999864,60 m 119.999909,120 29.999955,-180 m -89.999865,180 -29.999995,-180 m 114.999866,-10 -149.999879,80 m 134.999924,110 14.999955,-190 m -94.999873,190 -14.999993,-190 m 104.999863,-10 -149.999906,100 m 149.999906,100 v -200 m -99.999862,200 v -200 m 94.999883,-10 -149.999957,120 m 164.999933,90 -14.999976,-210 m -104.999884,210 15.000001,-210 M 31.910394,85.264304 -118.08962,225.2643 m 179.999906,80 L 31.910394,85.264304 M -78.089519,305.2643 -48.089524,85.264304 m 74.999915,-10 L -123.08965,235.2643 m 194.999882,70 L 26.910391,75.264304 M -88.089519,305.2643 -43.089521,75.264304 m 64.999909,-10 L -128.08968,245.2643 m 209.999855,60 L 21.910388,65.264304 M -98.089521,305.2643 -38.089522,65.264304 m 54.999922,-10 -150.0001,199.999996 m 224.999818,50 L 16.9104,55.264304 M -108.08956,305.2643 -33.089528,55.264304 m 44.99994,-10 L -138.08973,265.2643 m 239.9998,40 L 11.910412,45.264304 M -118.08962,305.2643 -28.089549,45.264304 m 34.9999598,-10 L -143.08976,275.2643 m 254.99983,30 L 6.9104108,35.264304 M -128.08968,305.2643 -23.089561,35.264304 m 24.9999778,-10 L -148.08979,285.2643 m 269.99986,20 L 1.9104168,25.264304 M -138.08973,305.2643 -18.089561,25.264304 m 14.9999807,-10 L -153.0898,295.2643 m 284.99987,10 L -3.0895803,15.264304 M -148.08979,305.2643 -13.089564,15.264304"
           style="fill:none;fill-opacity:1;stroke:url(#radialGradient2830);stroke-width:0.264583;stroke-linecap:butt;stroke-linejoin:miter;stroke-opacity:1"
           id="path1979" />
      </g>
      <g
         id="g2855"
         transform="rotate(180,-157.82651,305.201)">
        <path
           d="M -7.7787374,5.1007827 H -307.77874 l 150,299.9999973 L -7.7787374,5.1007827 m -300.0000026,0 150,299.9999973 M -7.7787374,5.1007827 H -307.77874 m 0,0 H -7.7787374 M -302.77874,15.100783 l 150,279.999997 M -17.778737,5.1007827 -302.77874,15.100783 m 5,-10.0000003 285.000003,10.0000003 m -285.000003,10 150,259.999997 M -27.778737,5.1007827 -297.77874,25.100783 m 10,-20.0000003 270.000003,20.0000003 m -275.000003,10 150,239.999997 M -37.778737,5.1007827 -292.77874,35.100783 m 15,-30.0000003 255.000003,30.0000003 m -265.000003,10 150,219.999997 M -47.778737,5.1007827 -287.77874,45.100783 m 20,-40.0000003 240.000003,40.0000003 m -255.000003,10 150,199.999997 M -57.778737,5.1007827 -282.77874,55.100783 m 25,-50.0000003 225.000003,50.0000003 m -245.000003,10 150,179.999997 M -67.778737,5.1007827 -277.77874,65.100783 m 30,-60.0000003 210.000003,60.0000003 m -235.000003,10 150,159.999997 M -77.778737,5.1007827 -272.77874,75.100783 m 35,-70.0000003 195.000003,70.0000003 m -225.000003,10 150,139.999997 M -87.778737,5.1007827 -267.77874,85.100783 m 40,-80.0000003 180.000003,80.0000003 m -215.000003,10 150,119.999997 M -97.778737,5.1007827 -262.77874,95.100783 m 45,-90.0000003 165.000003,90.0000003 m -205.000003,9.999997 150,100 m 0,-199.9999973 -150,99.9999973 m 50,-99.9999973 150.000003,99.9999973 m -195.000003,10 150,80 m -15,-189.9999973 -135,109.9999973 m 55,-109.9999973 135.000003,109.9999973 m -185.000003,10 150.000003,60 M -127.77874,5.1007827 l -120,119.9999973 m 60,-119.9999973 120.000003,119.9999973 m -175.000003,10 150.000003,40 M -137.77874,5.1007827 l -105,129.9999973 m 65,-129.9999973 105.000003,129.9999973 m -165.000003,10 150.000003,20 M -147.77874,5.1007827 l -90,139.9999973 m 70,-139.9999973 90.000003,139.9999973 m -155.000003,10 H -82.778737 M -157.77874,5.1007827 l -75,149.9999973 m 75,-149.9999973 75.000003,149.9999973 m -145.000003,10 150.000003,-20 M -167.77874,5.1007827 l -60,159.9999973 m 80,-159.9999973 60.000003,159.9999973 m -135.000003,10 150.000003,-40 M -177.77874,5.1007827 l -45,169.9999973 m 85,-169.9999973 45.000003,169.9999973 m -125.000003,10 150.000003,-60 M -187.77874,5.1007827 l -30,179.9999973 m 90,-179.9999973 30.000003,179.9999973 m -115.000003,10 150.000003,-80 M -197.77874,5.1007827 l -15,189.9999973 m 95,-189.9999973 15,189.9999973 m -105,10 150.000003,-100 M -207.77874,5.1007827 V 205.10078 m 100,-199.9999973 V 205.10078 m -95,10 L -52.778737,95.100783 M -217.77874,5.1007827 l 15,209.9999973 M -97.778737,5.1007827 -112.77874,215.10078 m -85,10 L -47.778737,85.100783 M -227.77874,5.1007827 l 30,219.9999973 M -87.778737,5.1007827 -117.77874,225.10078 m -75,10 L -42.778737,75.100783 M -237.77874,5.1007827 l 45,229.9999973 M -77.778737,5.1007827 -122.77874,235.10078 m -65,10 L -37.778737,65.100783 M -247.77874,5.1007827 l 60,239.9999973 M -67.778737,5.1007827 -127.77874,245.10078 m -55,10 L -32.778737,55.100783 M -257.77874,5.1007827 l 75,249.9999973 M -57.778737,5.1007827 -132.77874,255.10078 m -45,10 L -27.778737,45.100783 M -267.77874,5.1007827 l 90,259.9999973 M -47.778737,5.1007827 -137.77874,265.10078 m -35,10 L -22.778737,35.100783 M -277.77874,5.1007827 l 105,269.9999973 M -37.778737,5.1007827 -142.77874,275.10078 m -25,10 L -17.778737,25.100783 M -287.77874,5.1007827 l 120,279.9999973 M -27.778737,5.1007827 -147.77874,285.10078 m -15,10 L -12.778737,15.100783 M -297.77874,5.1007827 l 135,289.9999973 M -17.778737,5.1007827 -152.77874,295.10078"
           style="fill:none;fill-opacity:1;stroke:url(#radialGradient2857);stroke-width:0.264583;stroke-linecap:butt;stroke-linejoin:miter;stroke-opacity:1"
           id="path2849" />
        <path
           d="m -457.65882,305.2643 h 300 l -150,-299.999996 -150,299.999996 m 300,0 -150,-299.999996 m -150,299.999996 h 300 m 0,0 h -300 m 295,-10 -150,-279.999996 m -135,289.999996 285,-10 m -5,10 -285,-10 m 285,-10 -150,-259.999996 m -120,279.999996 270,-20 m -10,20 -270,-20 m 275,-10 -150,-239.999996 m -105,269.999996 255,-30 m -15,30 -255,-30 m 265,-10 -150,-219.999996 m -90,259.999996 240,-40 m -20,40 -240,-40 m 255,-10 -150,-199.999996 m -75,249.999996 225,-50 m -25,50 -225,-50 m 245,-10 -150,-179.999996 m -60,239.999996 210,-60 m -30,60 -210,-60 m 235,-10 -150,-159.999996 m -45,229.999996 195,-70 m -35,70 -195,-70 m 225,-10 -150,-139.999996 m -30,219.999996 180,-80 m -40,80 -180,-80 m 215,-10 -150,-120 m -15,210 165,-90 m -45,90 -165,-90 m 205,-10 -150,-100 m 0,200 150,-100 m -50,100 -150,-100 m 195,-10 -150,-80 m 15,190 135,-110 m -55,110 -135,-110 m 185,-10 -150,-60 m 30,180 120,-120 m -60,120 -120,-120 m 175,-10 -150,-40 m 45,170 105,-130 m -65,130 -105,-130 m 165,-10 -150,-20 m 60,160 90,-140 m -70,140 -90,-140 m 155,-10 h -150 m 75,150 75,-150 m -75,150 -75,-150 m 145,-10 -150,20 m 90,140 60,-160 m -80,160 -60,-160 m 135,-10 -150,40 m 105,130 45,-170 m -85,170 -45,-170 m 125,-10 -150,60 m 120,120 30,-180 m -90,180 -30,-180 m 115,-10 -150,80 m 135,110 15,-190 m -95,190 -15,-190 m 105,-10 -150,100 m 150,100 v -200 m -100,200 v -200 m 95,-10 -150,120 m 165,90 -15,-210 m -105,210 15,-210 m 85,-9.999996 -150,139.999996 m 180,80 -30,-219.999996 m -110,219.999996 30,-219.999996 m 75,-10 -150,159.999996 m 195,70 -45,-229.999996 m -115,229.999996 45,-229.999996 m 65,-10 -150,179.999996 m 210,60 -60,-239.999996 m -120,239.999996 60,-239.999996 m 55,-10 -150,199.999996 m 225,50 -75,-249.999996 m -125,249.999996 75,-249.999996 m 45,-10 -150,219.999996 m 240,40 -90,-259.999996 m -130,259.999996 90,-259.999996 m 35,-10 -150,239.999996 m 255,30 -105,-269.999996 m -135,269.999996 105,-269.999996 m 25,-10 -150,259.999996 m 270,20 -120,-279.999996 m -140,279.999996 120,-279.999996 m 15,-10 -150,279.999996 m 285,10 -135,-289.999996 m -145,289.999996 135,-289.999996"
           style="fill:none;fill-opacity:1;stroke:url(#radialGradient2859);stroke-width:0.264583;stroke-linecap:butt;stroke-linejoin:miter;stroke-opacity:1"
           id="path2851" />
        <path
           d="M -158.0898,305.2643 H 141.91007 L -8.0895743,5.264304 -158.0898,305.2643 m 299.99987,0 L -8.0895743,5.264304 M -158.0898,305.2643 h 299.99987 m 0,0 H -158.0898 m 294.99987,-10 L -13.089564,15.264304 M -148.08979,305.2643 l 284.99986,-10 m -5,10 -284.99987,-10 m 284.99987,-10 L -18.089561,25.264304 M -138.08973,305.2643 l 269.9998,-20 m -10,20 -269.99986,-20 m 274.99986,-10 L -23.089561,35.264304 M -128.08968,305.2643 l 254.99975,-30 m -15,30 -254.99983,-30 m 264.99983,-10 L -28.089549,45.264304 m -90.000071,259.999996 239.99969,-40 m -20,40 -239.9998,-40 m 254.9998,-10 L -33.089528,55.264304 m -75.000032,249.999996 224.99963,-50 m -24.999952,50 -224.999818,-50 m 244.99977,-10 L -38.089522,65.264304 m -59.999999,239.999996 209.999591,-60 m -29.999895,60 -209.999855,-60 m 234.99975,-10 L -43.089521,75.264304 m -44.999998,229.999996 194.999589,-70 m -34.999838,70 -194.999882,-70 m 224.99972,-10 L -48.089524,85.264304 m -29.999995,219.999996 179.999589,-80 m -39.999784,80 -179.999906,-80 m 214.999708,-10 -149.999604,-120 m -15.000001,210 164.999605,-90 m -44.999745,90 -164.999933,-90 m 204.999708,-10 -149.999634,-100 m 0,200 149.999634,-100 m -49.999772,100 -149.999906,-100 m 194.999705,-10 -149.999662,-80 m 14.999993,190 134.999669,-110 m -54.999751,110 -134.999924,-110 m 184.999705,-10 -149.999692,-60 m 29.999995,180 119.999697,-120 m -59.999787,120 -119.999909,-120 m 174.999723,-10 -149.999719,-40 m 44.999968,170 104.999751,-130 m -64.99979,130 -104.999931,-130 m 164.999751,-10 -149.999751,-20 m 59.999958,160 89.999793,-140 m -69.9998152,140 -89.9999358,-140 m 154.999778,-10 H -83.08952 m 74.9999457,150 74.9998333,-150 m -74.9998333,150 -74.9999457,-150 m 144.999806,-10 -149.999805,20 m 89.9999358,140 59.9998692,-160 m -79.999847,160 -59.999958,-160 m 134.999835,-10 -149.999835,40 m 104.999931,130 44.999904,-170 m -84.999865,170 -44.999968,-170 m 124.99986,-10 -149.999864,60 m 119.999909,120 29.999955,-180 m -89.999865,180 -29.999995,-180 m 114.999866,-10 -149.999879,80 m 134.999924,110 14.999955,-190 m -94.999873,190 -14.999993,-190 m 104.999863,-10 -149.999906,100 m 149.999906,100 v -200 m -99.999862,200 v -200 m 94.999883,-10 -149.999957,120 m 164.999933,90 -14.999976,-210 m -104.999884,210 15.000001,-210 M 31.910394,85.264304 -118.08962,225.2643 m 179.999906,80 L 31.910394,85.264304 M -78.089519,305.2643 -48.089524,85.264304 m 74.999915,-10 L -123.08965,235.2643 m 194.999882,70 L 26.910391,75.264304 M -88.089519,305.2643 -43.089521,75.264304 m 64.999909,-10 L -128.08968,245.2643 m 209.999855,60 L 21.910388,65.264304 M -98.089521,305.2643 -38.089522,65.264304 m 54.999922,-10 -150.0001,199.999996 m 224.999818,50 L 16.9104,55.264304 M -108.08956,305.2643 -33.089528,55.264304 m 44.99994,-10 L -138.08973,265.2643 m 239.9998,40 L 11.910412,45.264304 M -118.08962,305.2643 -28.089549,45.264304 m 34.9999598,-10 L -143.08976,275.2643 m 254.99983,30 L 6.9104108,35.264304 M -128.08968,305.2643 -23.089561,35.264304 m 24.9999778,-10 L -148.08979,285.2643 m 269.99986,20 L 1.9104168,25.264304 M -138.08973,305.2643 -18.089561,25.264304 m 14.9999807,-10 L -153.0898,295.2643 m 284.99987,10 L -3.0895803,15.264304 M -148.08979,305.2643 -13.089564,15.264304"
           style="fill:none;fill-opacity:1;stroke:url(#radialGradient2861);stroke-width:0.264583;stroke-linecap:butt;stroke-linejoin:miter;stroke-opacity:1"
           id="path2853" />
      </g>
    </g>
  </g>
</svg>
