<?xml version="1.0" encoding="UTF-8" standalone="no"?>
<svg
   xmlns:dc="http://purl.org/dc/elements/1.1/"
   xmlns:cc="http://creativecommons.org/ns#"
   xmlns:rdf="http://www.w3.org/1999/02/22-rdf-syntax-ns#"
   xmlns:svg="http://www.w3.org/2000/svg"
   xmlns="http://www.w3.org/2000/svg"
   xmlns:sodipodi="http://sodipodi.sourceforge.net/DTD/sodipodi-0.dtd"
   xmlns:inkscape="http://www.inkscape.org/namespaces/inkscape"
   width="300.26459mm"
   height="300.26459mm"
   viewBox="0 0 300.26459 300.26459"
   version="1.1"
   id="svg8"
   sodipodi:docname="square_2_sides.svg"
   inkscape:version="1.0.1 (0767f8302a, 2020-10-17)">
  <defs
     id="defs2" />
  <sodipodi:namedview
     id="base"
     pagecolor="#ffffff"
     bordercolor="#666666"
     borderopacity="1.0"
     inkscape:pageopacity="0.0"
     inkscape:pageshadow="2"
     inkscape:zoom="0.35"
     inkscape:cx="470.33232"
     inkscape:cy="590.29081"
     inkscape:document-units="mm"
     inkscape:current-layer="layer1"
     inkscape:document-rotation="0"
     showgrid="false"
     inkscape:window-width="1848"
     inkscape:window-height="1136"
     inkscape:window-x="72"
     inkscape:window-y="27"
     inkscape:window-maximized="1"
     fit-margin-top="0"
     fit-margin-left="0"
     fit-margin-right="0"
     fit-margin-bottom="0" />
  <metadata
     id="metadata5">
    <rdf:RDF>
      <cc:Work
         rdf:about="">
        <dc:format>image/svg+xml</dc:format>
        <dc:type
           rdf:resource="http://purl.org/dc/dcmitype/StillImage" />
        <dc:title></dc:title>
      </cc:Work>
    </rdf:RDF>
  </metadata>
  <g
     inkscape:label="Layer 1"
     inkscape:groupmode="layer"
     id="layer1"
     transform="translate(18.608758,8.0144435)">
    <path
       d="M -18.476467,292.11785 H 281.52353 V -7.882152 H -18.476467 V 292.11785 M 281.52353,-7.882152 H -18.476467 m 0,300.000002 H 281.52353 m 0,-297.000002 -296.999997,-3 m -3,297.000002 296.999997,3 m 3,-294.000002 -293.999997,-6 m -6,294.000002 293.999997,6 m 6,-291.000002 -290.9999966,-9 m -9.0000004,291.000002 290.999997,9 m 9,-288.000002 -287.9999966,-12 m -12.0000004,288.000002 287.999997,12 m 12,-285.000002 -284.9999966,-15 m -15.0000004,285.000002 284.999997,15 m 15,-282.000002 -281.99999659,-18 M -18.476467,274.11785 l 281.999997,18 m 18,-279.000002 -278.9999966,-21 m -21.0000004,279.000002 278.999997,21 m 21,-276.000002 -275.9999966,-24 m -24.0000004,276.000002 275.999997,24 m 24,-273.000002 -272.9999966,-27 m -27.0000004,273.000002 272.999997,27 m 27,-270.000002 -269.999997,-30 m -30,270.000002 269.999997,30 m 30,-267.000002 -266.999997,-33 m -33,267.000002 266.999997,33 m 33,-264.000002 -263.999997,-36 m -36,264.000002 263.999997,36 m 36,-261.000002 -260.999997,-39 m -39,261.000002 260.999997,39 m 39,-258.000002 -257.999997,-42 m -42,258.000002 257.999997,42 m 42,-255.000002 -254.999997,-45 m -45,255.000002 254.999997,45 m 45,-252.000002 -251.999997,-48 m -48,252.000002 251.999997,48 m 48,-249.000002 -248.999997,-51 m -51,249.000002 248.999997,51 m 51,-246.000002 -245.999997,-54 m -54,246.000002 245.999997,54 m 54,-243.000002 -242.999997,-57 m -57,243.000002 242.999997,57 m 57,-240.000002 -239.999997,-60 m -60,240.000002 239.999997,60 m 60,-237.000002 -236.999997,-63 m -63,237.000002 236.999997,63 m 63,-234.000002 -233.999997,-66 m -66,234.000002 233.999997,66 m 66,-231.000002 -230.999997,-69 m -69,231.000002 230.999997,69 m 69,-228.000002 -227.999997,-72 m -72,228.000002 227.999997,72 m 72,-225.000002 -224.999997,-75 m -75,225.000002 224.999997,75 m 75,-222.000002 -221.999997,-78 m -78,222.000002 221.999997,78 m 78,-219.000002 -218.999997,-81 m -81,219.000002 218.999997,81 m 81,-216.000002 -215.999997,-84 m -84,216.000002 215.999997,84 m 84,-213.000002 -212.999997,-87 m -87,213.000002 212.999997,87 m 87,-210.000002 -209.999997,-90 m -90,210.000002 209.999997,90 m 90,-207.000002 -206.999997,-93 m -93,207.000002 206.999997,93 m 93,-204.000002 -203.999997,-96 m -96,204.000002 203.999997,96 m 96,-201.000002 -200.999997,-99 m -99,201.000002 200.999997,99 m 99,-198.000002 -197.999997,-102 m -102,198.000002 197.999997,102 m 102,-195.000002 -194.999997,-105 m -105,195.000002 194.999997,105 m 105,-192 L 89.523533,-7.882152 m -108,192.000002 191.999997,108 m 108,-189 L 92.523533,-7.882152 m -111,189.000002 188.999997,111 m 111,-186 L 95.523533,-7.882152 m -114,186.000002 185.999997,114 m 114,-183 L 98.523533,-7.882152 m -117,183.000002 182.999997,117 m 117,-180 -180,-120.000002 m -119.999997,180.000002 179.999997,120 m 120,-177 -177,-123.000002 m -122.999997,177.000002 176.999997,123 m 123,-174 -174,-126.000002 m -125.999997,174.000002 173.999997,126 m 126,-171 -171,-129.000002 m -128.999997,171.000002 170.999997,129 m 129,-168 -168,-132.000002 m -131.999997,168.000002 167.999997,132 m 132,-165 -165,-135.000002 m -134.999997,165.000002 164.999997,135 m 135,-162 -162,-138.000002 m -137.999997,162.000002 161.999997,138 m 138,-159 -159,-141.000002 m -140.999997,159.000002 158.999997,141 m 141,-156 -156,-144.000002 m -143.999997,156.000002 155.999997,144 m 144,-153 -153,-147.000002 m -146.999997,153.000002 152.999997,147 m 147,-150 -150,-150.000002 m -149.999997,150.000002 149.999997,150 m 150,-147 -147,-153.000002 m -152.999997,147.000002 146.999997,153 m 153,-144 -144,-156.000002 m -155.999997,144.000002 143.999997,156 m 156,-141 -141,-159.000002 m -158.999997,141.000002 140.999997,159 m 159,-138 -138,-162.000002 m -161.999997,138.000002 137.999997,162 m 162,-135 -135,-165.000002 m -164.999997,135.000002 134.999997,165 m 165,-132 -132,-168.000002 m -167.999997,132.000002 131.999997,168 m 168,-129 -129,-171.000002 m -170.999997,129.000002 128.999997,171 m 171,-126 -126,-174.000002 m -173.999997,126.000002 125.999997,174 m 174,-123 -123,-177.000002 m -176.999997,123.000002 122.999997,177 m 177,-120 -120,-180.000002 m -179.999997,120.000002 119.999997,180 m 180,-117 -117,-183.000002 m -182.999997,117.000002 117,183 m 182.999997,-114 -114,-186.000002 m -185.999997,114.000002 114,186 m 185.999997,-111 -111,-189.000002 m -188.999997,111.000002 111,189 m 188.999997,-108 -108,-192.000002 m -191.999997,108.000002 108,192 m 191.999997,-105 -105,-195.000002 m -194.999997,105 105,195.000002 m 194.999997,-102 -102,-198.000002 m -197.999997,102 102,198.000002 m 197.999997,-99 -99,-201.000002 m -200.999997,99 99,201.000002 m 200.999997,-96 -96,-204.000002 m -203.999997,96 96,204.000002 m 203.999997,-93 -93,-207.000002 m -206.999997,93 93,207.000002 m 206.999997,-90 -90,-210.000002 m -209.999997,90 90,210.000002 m 209.999997,-87 -87,-213.000002 m -212.999997,87 87,213.000002 m 212.999997,-84 -84,-216.000002 m -215.999997,84 84,216.000002 m 215.999997,-81 -81,-219.000002 m -218.999997,81 81,219.000002 m 218.999997,-78 -78,-222.000002 m -221.999997,78 78,222.000002 m 221.999997,-75 -75,-225.000002 m -224.999997,75 75,225.000002 m 224.999997,-72 -72,-228.000002 m -227.999997,72 72,228.000002 m 227.999997,-69 -69,-231.000002 m -230.999997,69 69,231.000002 m 230.999997,-66 -66,-234.000002 m -233.999997,66 66,234.000002 m 233.999997,-63 -63,-237.000002 m -236.999997,63 63,237.000002 m 236.999997,-60 -60,-240.000002 m -239.999997,60 60,240.000002 m 239.999997,-57 -57,-243.000002 m -242.999997,57 57,243.000002 m 242.999997,-54 -54,-246.000002 m -245.999997,54 54,246.000002 m 245.999997,-51 -51,-249.000002 m -248.999997,51 51,249.000002 m 248.999997,-48 -48,-252.000002 m -251.999997,48 48,252.000002 m 251.999997,-45 -45,-255.000002 m -254.999997,45 45,255.000002 m 254.999997,-42 -42,-258.000002 m -257.999997,42 42,258.000002 m 257.999997,-39 -39,-261.000002 m -260.999997,39 39,261.000002 m 260.999997,-36 -36,-264.000002 m -263.999997,36 36,264.000002 m 263.999997,-33 -33,-267.000002 m -266.999997,33 33,267.000002 m 266.999997,-30 -30,-270.000002 m -269.999997,30 30,270.000002 m 269.999997,-27 -27,-273.000002 m -272.999997,27 27.0000004,273.000002 m 272.9999966,-24 -24,-276.000002 m -275.999997,24 24.0000004,276.000002 m 275.9999966,-21 -21,-279.000002 m -278.999997,21 21.0000004,279.000002 m 278.9999966,-18 -18,-282.000002 m -281.999997,18 18.00000041,282.000002 m 281.99999659,-15 -15,-285.000002 m -284.999997,15 15.0000004,285.000002 m 284.9999966,-12 -12,-288.000002 m -287.999997,12 12.0000004,288.000002 m 287.9999966,-9 -9,-291.000002 m -290.999997,9 9.0000004,291.000002 m 290.9999966,-6 -6,-294.000002 m -293.999997,6 6,294.000002 m 293.999997,-3 -3,-297.000002 m -296.999997,3 3,297.000002"
       style="fill:none;fill-opacity:1;stroke:#000000;stroke-width:0.264583;stroke-linecap:butt;stroke-linejoin:miter;stroke-opacity:1"
       id="path53" />
  </g>
</svg>
