<?xml version="1.0" encoding="UTF-8" standalone="no"?>
<svg
   xmlns:dc="http://purl.org/dc/elements/1.1/"
   xmlns:cc="http://creativecommons.org/ns#"
   xmlns:rdf="http://www.w3.org/1999/02/22-rdf-syntax-ns#"
   xmlns:svg="http://www.w3.org/2000/svg"
   xmlns="http://www.w3.org/2000/svg"
   xmlns:sodipodi="http://sodipodi.sourceforge.net/DTD/sodipodi-0.dtd"
   xmlns:inkscape="http://www.inkscape.org/namespaces/inkscape"
   id="svg8"
   version="1.1"
   viewBox="0 0 150.26459 150.26459"
   height="150.26459mm"
   width="150.26459mm"
   inkscape:version="1.0 (4035a4f, 2020-05-01)"
   sodipodi:docname="square.svg">
  <defs
     id="defs2" />
  <sodipodi:namedview
     fit-margin-bottom="0"
     fit-margin-right="0"
     fit-margin-left="0"
     fit-margin-top="0"
     id="base"
     pagecolor="#ffffff"
     bordercolor="#666666"
     borderopacity="1.0"
     inkscape:pageopacity="0.0"
     inkscape:pageshadow="2"
     inkscape:zoom="0.45269292"
     inkscape:cx="283.96457"
     inkscape:cy="283.96457"
     inkscape:document-units="mm"
     inkscape:current-layer="layer1"
     inkscape:document-rotation="0"
     showgrid="false"
     inkscape:window-width="1252"
     inkscape:window-height="747"
     inkscape:window-x="0"
     inkscape:window-y="25"
     inkscape:window-maximized="0" />
  <metadata
     id="metadata5">
    <rdf:RDF>
      <cc:Work
         rdf:about="">
        <dc:format>image/svg+xml</dc:format>
        <dc:type
           rdf:resource="http://purl.org/dc/dcmitype/StillImage" />
        <dc:title></dc:title>
      </cc:Work>
    </rdf:RDF>
  </metadata>
  <g
     transform="translate(-33.25425,-72.952613)"
     inkscape:label="Layer 1"
     inkscape:groupmode="layer"
     id="layer1">
    <path
       id="path988"
       style="fill:none;fill-opacity:1;stroke:#000000;stroke-width:0.264583;stroke-linecap:butt;stroke-linejoin:miter;stroke-opacity:1"
       d="M 33.386541,223.08491 H 183.38654 V 73.084905 H 33.386541 V 223.08491 m 0,-150.000005 H 183.38654 m 0,0 H 33.386541 M 183.38654,223.08491 H 33.386541 m 0,0 H 183.38654 M 33.386541,76.084905 l 146.999999,-3 m 3,3 -146.999999,-3 m 146.999999,147.000005 -146.999999,3 m -3,-3 146.999999,3 M 33.386541,79.084905 l 143.999999,-6 m 6,6 -143.999999,-6 m 143.999999,144.000005 -143.999999,6 m -6,-6 143.999999,6 M 33.386541,82.084905 l 140.999999,-9 m 9,9 -140.999999,-9 m 140.999999,141.000005 -140.999999,9 m -9,-9 140.999999,9 M 33.386541,85.084905 l 137.999999,-12 m 12,12 -137.999999,-12 m 137.999999,138.000005 -137.999999,12 m -12,-12 137.999999,12 M 33.386541,88.084905 l 134.999999,-15 m 15,15 -134.999999,-15 m 134.999999,135.000005 -134.999999,15 m -15,-15 134.999999,15 M 33.386541,91.084905 l 131.999999,-18 m 18,18 -131.999999,-18 m 131.999999,132.000005 -131.999999,18 m -18,-18 131.999999,18 M 33.386541,94.084905 l 128.999999,-21 m 21,21 -128.999999,-21 m 128.999999,129.000005 -128.999999,21 m -21,-21 128.999999,21 M 33.386541,97.084905 l 125.999999,-24 m 24,24 -125.999999,-24 m 125.999999,126.000005 -125.999999,24 m -24,-24 125.999999,24 m -125.999999,-123 122.999999,-27.000005 m 27,27.000005 L 60.386541,73.084905 m 122.999999,123.000005 -122.999999,27 m -27,-27 122.999999,27 m -122.999999,-120 119.999999,-30.000005 m 30,30.000005 L 63.386541,73.084905 m 119.999999,120.000005 -119.999999,30 m -30,-30 119.999999,30 m -119.999999,-117 116.999999,-33.000005 m 33,33.000005 L 66.386541,73.084905 m 116.999999,117.000005 -116.999999,33 m -33,-33 116.999999,33 m -116.999999,-114 113.999999,-36.000005 m 36,36.000005 L 69.386541,73.084905 m 113.999999,114.000005 -113.999999,36 m -36,-36 113.999999,36 m -113.999999,-111 110.999999,-39.000005 m 39,39.000005 L 72.386541,73.084905 m 110.999999,111.000005 -110.999999,39 m -39,-39 110.999999,39 m -110.999999,-108 107.999999,-42.000005 m 42,42.000005 L 75.386541,73.084905 m 107.999999,108.000005 -107.999999,42 m -42,-42 107.999999,42 m -107.999999,-105 104.999999,-45.000005 m 45,45.000005 L 78.386541,73.084905 m 104.999999,105.000005 -104.999999,45 m -45,-45 104.999999,45 m -104.999999,-102 101.999999,-48.000005 m 48,48.000005 L 81.386541,73.084905 m 101.999999,102.000005 -101.999999,48 m -48,-48 101.999999,48 m -101.999999,-99 98.999999,-51.000005 m 51,51.000005 -98.999999,-51.000005 m 98.999999,99.000005 -98.999999,51 m -51,-51 98.999999,51 m -98.999999,-96 95.999999,-54.000005 m 54,54.000005 -95.999999,-54.000005 m 95.999999,96.000005 -95.999999,54 m -54,-54 95.999999,54 m -95.999999,-93 92.999999,-57.000005 m 57,57.000005 -92.999999,-57.000005 m 92.999999,93.000005 -92.999999,57 m -57,-57 92.999999,57 m -92.999999,-90 89.999999,-60.000005 m 60,60.000005 -89.999999,-60.000005 m 89.999999,90.000005 -89.999999,60 m -60,-60 89.999999,60 m -89.999999,-87 86.999999,-63.000005 m 63,63.000005 -86.999999,-63.000005 m 86.999999,87.000005 -86.999999,63 m -63,-63 86.999999,63 m -86.999999,-84 83.999999,-66.000005 m 66,66.000005 -83.999999,-66.000005 m 83.999999,84.000005 -83.999999,66 m -66,-66 83.999999,66 m -83.999999,-81 80.999999,-69.000005 m 69,69.000005 -81,-69.000005 m 81,81.000005 -81,69 m -68.999999,-69 80.999999,69 m -80.999999,-78 77.999999,-72.000005 m 72,72.000005 -78,-72.000005 m 78,78.000005 -78,72 m -71.999999,-72 77.999999,72 m -77.999999,-75 74.999999,-75.000005 m 75,75.000005 -75,-75.000005 m 75,75.000005 -75,75 m -74.999999,-75 74.999999,75 m -74.999999,-72 71.999999,-78.000005 m 78,78.000005 -72,-78.000005 m 72,72.000005 -72,78 m -77.999999,-78 71.999999,78 m -71.999999,-69 68.999999,-81.000005 m 81,81.000005 -69,-81.000005 m 69,69.000005 -69,81 m -80.999999,-81 68.999999,81 m -68.999999,-66 66,-84.000005 m 83.999999,84.000005 -66,-84.000005 m 66,66.000005 -66,84 m -83.999999,-84 66,84 m -66,-63 63,-87.000005 m 86.999999,87.000005 -63,-87.000005 m 63,63.000005 -63,87 m -86.999999,-87 63,87 m -63,-60 60,-90.000005 m 89.999999,90.000005 -60,-90.000005 m 60,60.000005 -60,90 m -89.999999,-90 60,90 m -60,-57 57,-93.000005 m 92.999999,93.000005 -57,-93.000005 m 57,57.000005 -57,93 m -92.999999,-93 57,93 m -57,-54 54,-96.000005 m 95.999999,96.000005 -54,-96.000005 m 54,54.000005 -54,96 m -95.999999,-96 54,96 m -54,-51 51,-99.000005 m 98.999999,99.000005 -51,-99.000005 m 51,51.000005 -51,99 m -98.999999,-99 51,99 m -51,-48 48,-102.000005 m 101.999999,102.000005 -48,-102.000005 m 48,48.000005 -48,102 m -101.999999,-102 48,102 m -48,-45 45,-105.000005 m 104.999999,105.000005 -45,-105.000005 m 45,45.000005 -45,105 m -104.999999,-105 45,105 m -45,-42 42,-108.000005 m 107.999999,108.000005 -42,-108.000005 m 42,42.000005 -42,108 m -107.999999,-108 42,108 m -42,-39 39,-111.000005 m 110.999999,111.000005 -39,-111.000005 m 39,39.000005 -39,111 m -110.999999,-111 39,111 m -39,-36 36,-114.000005 m 113.999999,114.000005 -36,-114.000005 m 36,36.000005 -36,114 m -113.999999,-114 36,114 m -36,-33 33,-117.000005 m 116.999999,117.000005 -33,-117.000005 m 33,33.000005 -33,117 m -116.999999,-117 33,117 m -33,-30 30,-120.000005 m 119.999999,120.000005 -30,-120.000005 m 30,30.000005 -30,120 m -119.999999,-120 30,120 m -30,-27 27,-123.000005 m 122.999999,123.000005 -27,-123.000005 m 27,27.000005 -27,123 m -122.999999,-123 27,123 m -27,-24 24,-126.000005 m 125.999999,126.000005 -24,-126.000005 m 24,24 -24,126.000005 M 33.386541,97.084905 l 24,126.000005 m -24,-21 21,-129.000005 m 128.999999,129.000005 -21,-129.000005 m 21,21 -21,129.000005 M 33.386541,94.084905 l 21,129.000005 m -21,-18 18,-132.000005 m 131.999999,132.000005 -18,-132.000005 m 18,18 -18,132.000005 M 33.386541,91.084905 l 18,132.000005 m -18,-15 15,-135.000005 m 134.999999,135.000005 -15,-135.000005 m 15,15 -15,135.000005 M 33.386541,88.084905 l 15,135.000005 m -15,-12 12,-138.000005 m 137.999999,138.000005 -12,-138.000005 m 12,12 -12,138.000005 M 33.386541,85.084905 l 12,138.000005 m -12,-9 9,-141.000005 m 140.999999,141.000005 -9,-141.000005 m 9,9 -9,141.000005 M 33.386541,82.084905 l 9,141.000005 m -9,-6 6,-144.000005 m 143.999999,144.000005 -6,-144.000005 m 6,6 -6,144.000005 M 33.386541,79.084905 l 6,144.000005 m -6,-3 3,-147.000005 m 146.999999,147.000005 -3,-147.000005 m 3,3 -3,147.000005 M 33.386541,76.084905 l 3,147.000005" />
  </g>
</svg>
