<?xml version="1.0" encoding="UTF-8" standalone="no"?>
<svg
   xmlns:dc="http://purl.org/dc/elements/1.1/"
   xmlns:cc="http://creativecommons.org/ns#"
   xmlns:rdf="http://www.w3.org/1999/02/22-rdf-syntax-ns#"
   xmlns:svg="http://www.w3.org/2000/svg"
   xmlns="http://www.w3.org/2000/svg"
   xmlns:sodipodi="http://sodipodi.sourceforge.net/DTD/sodipodi-0.dtd"
   xmlns:inkscape="http://www.inkscape.org/namespaces/inkscape"
   width="300.33237mm"
   height="300.4281mm"
   viewBox="0 0 300.33237 300.4281"
   version="1.1"
   id="svg8"
   sodipodi:docname="triangle_1_side.svg"
   inkscape:version="1.0.1 (0767f8302a, 2020-10-17)">
  <defs
     id="defs2" />
  <sodipodi:namedview
     id="base"
     pagecolor="#ffffff"
     bordercolor="#666666"
     borderopacity="1.0"
     inkscape:pageopacity="0.0"
     inkscape:pageshadow="2"
     inkscape:zoom="0.35"
     inkscape:cx="567.37635"
     inkscape:cy="568.04717"
     inkscape:document-units="mm"
     inkscape:current-layer="layer1"
     inkscape:document-rotation="0"
     showgrid="false"
     inkscape:window-width="1366"
     inkscape:window-height="869"
     inkscape:window-x="102"
     inkscape:window-y="117"
     inkscape:window-maximized="0"
     fit-margin-top="0"
     fit-margin-left="0"
     fit-margin-right="0"
     fit-margin-bottom="0" />
  <metadata
     id="metadata5">
    <rdf:RDF>
      <cc:Work
         rdf:about="">
        <dc:format>image/svg+xml</dc:format>
        <dc:type
           rdf:resource="http://purl.org/dc/dcmitype/StillImage" />
        <dc:title></dc:title>
      </cc:Work>
    </rdf:RDF>
  </metadata>
  <g
     inkscape:label="Layer 1"
     inkscape:groupmode="layer"
     id="layer1"
     transform="translate(44.284992,2.1291465)">
    <path
       d="M -44.166667,298.16667 H 255.83333 l -150,-300.0000033 L -44.166667,298.16667 m 299.999997,0 -150,-300.0000033 M 254.16667,294.83333 104.16667,1.5 M 252.5,291.5 102.5,4.8333333 M 250.83333,288.16667 100.83333,8.1666667 M 249.16667,284.83333 99.166667,11.5 M 247.5,281.5 97.5,14.833333 M 245.83333,278.16667 95.833333,18.166667 M 244.16667,274.83333 94.166667,21.5 M 242.5,271.5 92.5,24.833333 M 240.83333,268.16667 90.833333,28.166667 M 239.16667,264.83333 89.166667,31.5 M 237.5,261.5 87.5,34.833333 M 235.83333,258.16667 85.833333,38.166667 M 234.16667,254.83333 84.166667,41.5 M 232.5,251.5 82.5,44.833333 M 230.83333,248.16667 80.833333,48.166667 M 229.16667,244.83333 79.166667,51.5 M 227.5,241.5 77.5,54.833333 M 225.83333,238.16667 75.833333,58.166667 M 224.16667,234.83333 74.166667,61.5 M 222.5,231.5 72.5,64.833333 M 220.83333,228.16667 70.833333,68.166667 M 219.16667,224.83333 69.166667,71.5 M 217.5,221.5 67.5,74.833333 M 215.83333,218.16667 65.833333,78.166667 M 214.16667,214.83333 64.166667,81.5 M 212.5,211.5 62.5,84.833333 M 210.83333,208.16667 60.833333,88.166667 M 209.16667,204.83333 59.166667,91.5 M 207.5,201.5 57.5,94.833333 M 205.83333,198.16667 55.833333,98.166667 M 204.16667,194.83333 54.166667,101.5 M 202.5,191.5 52.5,104.83333 m 148.33333,83.33334 -149.999997,-80 M 199.16667,184.83333 49.166667,111.5 M 197.5,181.5 47.5,114.83333 m 148.33333,63.33334 -149.999997,-60 M 194.16667,174.83333 44.166667,121.5 M 192.5,171.5 42.5,124.83333 m 148.33333,43.33334 -149.999997,-40 M 189.16667,164.83333 39.166667,131.5 M 187.5,161.5 37.5,134.83333 m 148.33333,23.33334 -149.999997,-20 M 184.16667,154.83333 34.166667,141.5 M 182.5,151.5 32.5,144.83333 m 148.33333,3.33334 H 30.833333 M 179.16667,144.83333 29.166667,151.5 M 177.5,141.5 27.5,154.83333 m 148.33333,-16.66666 -149.999997,20 M 174.16667,134.83333 24.166667,161.5 M 172.5,131.5 22.5,164.83333 m 148.33333,-36.66666 -149.999997,40 M 169.16667,124.83333 19.166667,171.5 M 167.5,121.5 17.5,174.83333 m 148.33333,-56.66666 -149.999997,60 M 164.16667,114.83333 14.166667,181.5 M 162.5,111.5 12.5,184.83333 m 148.33333,-76.66666 -149.999997,80 M 159.16667,104.83333 9.1666667,191.5 M 157.5,101.5 7.5,194.83333 M 155.83333,98.166667 5.8333333,198.16667 M 154.16667,94.833333 4.1666667,201.5 M 152.5,91.5 2.5,204.83333 M 150.83333,88.166667 0.83333333,208.16667 M 149.16667,84.833333 -0.83333333,211.5 M 147.5,81.5 -2.5,214.83333 M 145.83333,78.166667 -4.1666667,218.16667 M 144.16667,74.833333 -5.8333333,221.5 M 142.5,71.5 -7.5,224.83333 M 140.83333,68.166667 -9.1666667,228.16667 M 139.16667,64.833333 -10.833333,231.5 M 137.5,61.5 -12.5,234.83333 M 135.83333,58.166667 -14.166667,238.16667 M 134.16667,54.833333 -15.833333,241.5 M 132.5,51.5 -17.5,244.83333 M 130.83333,48.166667 -19.166667,248.16667 M 129.16667,44.833333 -20.833333,251.5 M 127.5,41.5 -22.5,254.83333 M 125.83333,38.166667 -24.166667,258.16667 M 124.16667,34.833333 -25.833333,261.5 M 122.5,31.5 -27.5,264.83333 M 120.83333,28.166667 -29.166667,268.16667 M 119.16667,24.833333 -30.833333,271.5 M 117.5,21.5 -32.5,274.83333 M 115.83333,18.166667 -34.166667,278.16667 M 114.16667,14.833333 -35.833333,281.5 M 112.5,11.5 -37.5,284.83333 M 110.83333,8.1666667 -39.166667,288.16667 M 109.16667,4.8333333 -40.833333,291.5 M 107.5,1.5 -42.5,294.83333"
       style="fill:none;fill-opacity:1;stroke:#000000;stroke-width:0.264583;stroke-linecap:butt;stroke-linejoin:miter;stroke-opacity:1"
       id="path83" />
  </g>
</svg>
